<svg xmlns="http://www.w3.org/2000/svg" viewBox="0 0 1226 1492">
<g fill="none" stroke="black" stroke-width="1">
<path d="M 814,1400 815,1399 846,1399 847,1400 846,1401 815,1401" />
<path d="M 683,1400 684,1399 698,1399 699,1400 698,1401 684,1401" />
<path d="M 593,1400 594,1399 612,1399 613,1400 612,1401 594,1401" />
<path d="M 546,1400 547,1399 553,1399 554,1400 553,1401 547,1401" />
<path d="M 490,1400 491,1399 510,1399 511,1400 510,1401 491,1401" />
<path d="M 429,1400 430,1399 442,1399 443,1400 442,1401 430,1401" />
<path d="M 407,1400 408,1399 421,1399 422,1400 421,1401 408,1401" />
<path d="M 1075,1369 1074,1370 1073,1370 1073,1377 1072,1378 1072,1383 1073,1384 1073,1398 1072,1399 1072,1409 1104,1409 1105,1408 1119,1408 1120,1407 1120,1370 1119,1369 1118,1369 1117,1370 1079,1370 1078,1369" />
<path d="M 910,1369 909,1370 877,1370 876,1371 868,1371 868,1409 913,1409 915,1407 915,1405 913,1403 913,1370 912,1369" />
<path d="M 323,1369 322,1370 321,1370 319,1372 319,1407 321,1409 328,1409 329,1408 334,1408 335,1409 364,1409 365,1408 365,1371 364,1370 328,1370 327,1369" />
<path d="M 161,1368 158,1371 155,1371 154,1370 130,1370 129,1369 117,1369 114,1372 114,1409 161,1409 161,1370 162,1369 162,1368" />
<path d="M 264,1358 265,1357 266,1357 267,1358 266,1359 265,1359" />
<path d="M 981,1355 982,1354 983,1355 983,1358 982,1359 963,1359 962,1358 963,1357 980,1357 981,1356" />
<path d="M 1082,1352 1082,1353 1091,1353 1092,1354 1092,1355 1091,1356 1080,1356 1079,1357 1079,1367 1117,1367 1117,1362 1115,1360 1115,1358 1113,1356 1113,1354 1111,1354 1109,1352" />
<path d="M 877,1352 877,1354 875,1356 875,1360 874,1361 873,1361 873,1362 874,1362 875,1363 873,1365 876,1368 877,1367 909,1367 910,1366 911,1366 911,1364 909,1362 910,1361 910,1357 909,1356 909,1355 908,1354 907,1354 906,1353 906,1352" />
<path d="M 922,1346 923,1345 924,1346 924,1405 923,1406 922,1405" />
<path d="M 520,1328 521,1327 708,1327 709,1328 708,1329 521,1329" />
<path d="M 169,1319 170,1318 171,1319 171,1335 173,1337 173,1342 172,1343 172,1345 173,1346 173,1347 172,1348 172,1349 171,1350 171,1377 173,1379 173,1386 171,1388 171,1394 173,1396 173,1400 171,1402 171,1403 170,1404 169,1404 168,1403 169,1402" />
<path d="M 991,1318 992,1317 993,1318 993,1327 992,1328 991,1328 990,1327 990,1326 991,1325" />
<path d="M 249,1315 250,1314 251,1314 252,1315 252,1333 251,1334 251,1351 252,1352 252,1357 259,1357 260,1358 259,1359 251,1359 249,1357 249,1352 248,1351 248,1334 249,1333" />
<path d="M 993,1313 994,1312 995,1313 995,1315 996,1315 997,1316 996,1317 994,1317 993,1316" />
<path d="M 984,1308 985,1309 985,1326 984,1327 983,1327 982,1326 983,1325 983,1311 982,1310" />
<path d="M 990,1297 991,1296 992,1297 992,1298 994,1298 995,1299 995,1300 994,1301 993,1300 992,1300 992,1305 994,1305 995,1306 994,1307 993,1307 993,1309 992,1310 992,1311 991,1312 990,1311 990,1309 988,1307 988,1304 990,1302" />
<path d="M 239,1296 240,1295 241,1296 242,1296 243,1295 244,1295 245,1296 245,1307 246,1308 246,1313 245,1314 245,1319 243,1321 243,1323 242,1324 241,1323 241,1318 243,1316 243,1301 242,1300 240,1300 239,1301 239,1314 238,1315 237,1315 236,1316 234,1314 235,1313 236,1313 237,1312 237,1307 236,1306 236,1304 237,1303 237,1299 238,1298 239,1298" />
<path d="M 1091,1295 1092,1294 1096,1294 1097,1295 1096,1296 1092,1296" />
<path d="M 1110,1268 1111,1267 1113,1267 1114,1268 1114,1272 1113,1273 1113,1274 1114,1275 1112,1277 1107,1277 1106,1278 1105,1278 1104,1277 1104,1275 1106,1273 1110,1273 1111,1272 1111,1269" />
<path d="M 1106,1261 1107,1261 1108,1262 1107,1263 1107,1265 1108,1266 1107,1267 1106,1267 1104,1265 1104,1263" />
<path d="M 1000,1207 1001,1206 1002,1207 1002,1284 1050,1284 1050,1209 1049,1208 1049,1207 1050,1206 1052,1206 1053,1207 1052,1208 1053,1209 1053,1284 1052,1285 1053,1286 1053,1317 1054,1318 1054,1327 1053,1328 1053,1357 1051,1359 1050,1359 1049,1358 1050,1357 1050,1328 1051,1327 1051,1318 1050,1317 1050,1286 1002,1286 1002,1357 1006,1357 1007,1358 1006,1359 1001,1359 1000,1358 1000,1309 998,1307 998,1301 1000,1299 1000,1288 998,1286 998,1278 999,1277 1000,1277 1000,1218 999,1218 998,1217 999,1216 1000,1216" />
<path d="M 982,1207 983,1206 984,1206 985,1207 985,1213 984,1214 983,1214 982,1213 983,1212 983,1208" />
<path d="M 248,1207 249,1206 252,1209 251,1210 251,1240 252,1241 250,1243 250,1244 252,1246 251,1247 251,1283 252,1284 299,1284 300,1283 300,1210 298,1208 299,1207 300,1207 301,1206 302,1207 302,1369 304,1371 304,1399 302,1401 178,1401 177,1400 178,1399 179,1399 180,1398 180,1388 182,1386 182,1367 183,1366 184,1367 184,1397 186,1399 191,1399 193,1397 195,1397 197,1399 228,1399 230,1397 242,1397 243,1396 243,1359 244,1358 245,1359 245,1397 247,1399 289,1399 291,1397 300,1397 300,1359 296,1359 295,1358 296,1357 300,1357 300,1286 252,1286 250,1288 250,1302 249,1303 248,1302" />
<path d="M 935,1206 936,1205 938,1205 939,1206 939,1207 938,1208 936,1208 936,1219 935,1220 934,1220 934,1238 936,1240 936,1255 934,1257 934,1283 935,1284 982,1284 983,1285 982,1286 936,1286 934,1288 934,1327 936,1329 936,1357 938,1357 939,1358 938,1359 936,1359 936,1360 935,1361 934,1361 934,1397 982,1397 984,1399 990,1399 991,1398 991,1348 992,1347 993,1348 993,1396 994,1397 1050,1397 1051,1396 1051,1377 1050,1376 1050,1364 1051,1363 1052,1363 1053,1364 1053,1376 1054,1377 1054,1400 1053,1401 933,1401 932,1400 932,1207 933,1206" />
<path d="M 182,1205 183,1204 185,1206 185,1224 184,1225 184,1284 232,1284 232,1207 233,1206 234,1207 234,1285 232,1287 232,1288 231,1289 230,1288 230,1286 186,1286 184,1288 184,1350 185,1351 185,1356 186,1357 191,1357 192,1358 191,1359 184,1359 184,1360 183,1361 182,1360 182,1299 180,1297 182,1295" />
<path d="M 386,1197 386,1326 387,1326 388,1327 504,1327 505,1326 505,1197" />
<path d="M 854,1195 853,1196 852,1196 852,1330 851,1331 849,1329 726,1329 725,1328 726,1327 848,1327 849,1326 849,1203 848,1202 850,1200 850,1197 722,1197 722,1201 721,1202 720,1202 720,1256 721,1256 722,1257 722,1260 720,1262 720,1287 722,1289 722,1300 720,1302 720,1329 721,1330 720,1331 720,1336 855,1336 856,1335 855,1334 857,1332 857,1195" />
<path d="M 521,1195 519,1197 518,1197 518,1328 516,1330 516,1335 517,1336 718,1336 718,1332 716,1330 716,1245 718,1243 718,1238 716,1236 716,1196 715,1195 688,1195 686,1197 672,1197 670,1195 645,1195 644,1196 643,1196 642,1197 621,1197 619,1195 584,1195 583,1196 582,1196 581,1197 576,1197 574,1195 556,1195 554,1197 552,1197 551,1196 550,1196 549,1195" />
<path d="M 379,1195 379,1336 514,1336 514,1203 515,1202 516,1202 516,1199 514,1197 514,1196 513,1195 509,1195 507,1197 508,1198 508,1326 507,1327 508,1328 507,1329 385,1329 383,1331 382,1330 382,1316 384,1314 384,1299 382,1297 382,1261 383,1260 383,1259 384,1258 384,1237 383,1236 383,1235 382,1234 382,1201 383,1200 383,1199" />
<path d="M 517,1183 516,1184 516,1191 517,1192 519,1192 520,1193 551,1193 552,1192 553,1193 718,1193 718,1189 719,1188 720,1189 720,1191 722,1193 855,1193 856,1192 857,1192 857,1190 856,1189 857,1188 857,1183 720,1183 720,1184 719,1185 717,1183" />
<path d="M 379,1183 379,1190 380,1191 380,1193 514,1193 514,1183" />
<path d="M 1082,1154 1082,1346 1084,1348 1084,1350 1113,1350 1113,1296 1115,1294 1122,1294 1122,1248 1089,1248 1088,1247 1089,1246 1112,1246 1113,1245 1113,1232 1112,1231 1113,1230 1113,1228 1112,1228 1111,1227 1112,1226 1111,1225 1113,1223 1113,1190 1111,1188 1112,1187 1112,1155 1111,1154" />
<path d="M 1083,1148 1082,1149 1082,1151 1111,1151 1112,1150 1112,1149 1111,1148" />
<path d="M 878,1147 877,1148 877,1151 903,1151 904,1152 904,1153 903,1154 877,1154 877,1223 875,1225 875,1238 876,1239 876,1240 875,1241 875,1249 876,1249 877,1250 877,1253 875,1255 875,1348 877,1350 907,1350 908,1349 908,1147" />
<path d="M 123,1147 122,1148 120,1148 119,1149 119,1151 121,1151 122,1150 123,1151 147,1151 148,1152 148,1153 147,1154 123,1154 122,1155 121,1155 121,1186 123,1188 123,1203 122,1204 121,1204 121,1350 152,1350 152,1241 150,1239 150,1210 151,1209 152,1209 152,1173 150,1171 150,1147" />
<path d="M 1063,1144 1064,1143 1065,1144 1065,1400 1066,1401 1066,1402 1065,1403 1064,1402 1063,1403 1062,1402 1062,1401 1063,1400" />
<path d="M 245,1141 245,1142 244,1143 245,1144 245,1195 303,1195 304,1194 304,1187 303,1186 303,1141" />
<path d="M 174,1141 173,1142 173,1189 175,1191 174,1192 173,1192 173,1193 175,1195 241,1195 241,1194 243,1192 243,1191 241,1189 241,1172 243,1170 243,1153 241,1151 241,1142 240,1141" />
<path d="M 942,1139 943,1138 973,1138 974,1139 993,1139 994,1138 1060,1138 1061,1139 1061,1140 1060,1141 1057,1141 1056,1142 1056,1195 1057,1195 1058,1196 1057,1197 924,1197 924,1198 923,1199 922,1198 922,1142 923,1141 924,1142 924,1192 925,1193 925,1194 926,1195 989,1195 991,1193 991,1146 992,1145 994,1145 995,1146 995,1149 993,1151 993,1191 995,1193 995,1195 1052,1195 1054,1193 1054,1143 1053,1143 1051,1141 934,1141 933,1142 932,1142 931,1143 929,1141 928,1141 927,1140 928,1139" />
<path d="M 169,1139 170,1138 261,1138 262,1139 269,1139 270,1138 306,1138 307,1139 307,1142 306,1143 306,1186 307,1187 307,1196 306,1197 169,1197 168,1196 170,1194 169,1193" />
<path d="M 327,1134 327,1136 328,1137 328,1142 329,1143 355,1143 357,1141 357,1134" />
<path d="M 122,1134 121,1135 121,1139 123,1141 123,1143 152,1143 152,1135 151,1134" />
<path d="M 1082,1133 1082,1144 1083,1145 1085,1143 1111,1143 1111,1141 1113,1139 1113,1134 1085,1134 1084,1133" />
<path d="M 722,1126 722,1159 720,1161 720,1179 850,1179 850,1137 851,1136 852,1137 852,1179 853,1179 854,1180 854,1181 857,1181 857,1126" />
<path d="M 379,1126 379,1179 382,1179 382,1160 383,1159 383,1158 384,1157 384,1149 383,1148 384,1147 385,1147 386,1148 386,1179 508,1179 510,1181 512,1181 514,1179 514,1126" />
<path d="M 133,1126 134,1125 144,1125 145,1126 144,1127 134,1127" />
<path d="M 1044,1125 1045,1124 1058,1124 1059,1125 1058,1126 1045,1126" />
<path d="M 116,1124 116,1125 119,1128 118,1129 118,1131 156,1131 158,1133 155,1136 154,1136 154,1144 156,1146 155,1147 154,1147 154,1151 156,1153 156,1166 154,1168 154,1188 155,1189 154,1190 154,1191 156,1193 156,1350 157,1351 157,1352 158,1353 158,1354 159,1355 159,1365 160,1366 163,1366 165,1368 165,1369 164,1370 164,1406 166,1408 192,1408 193,1409 211,1409 212,1408 259,1408 260,1409 267,1409 268,1408 314,1408 315,1407 316,1407 316,1369 317,1368 317,1367 318,1366 320,1366 321,1365 321,1360 323,1358 323,1146 324,1145 324,1134 322,1134 317,1129 319,1127 319,1124 315,1124 313,1126 262,1126 260,1124 259,1124 257,1126 190,1126 188,1124 161,1124 161,1131 160,1132 159,1131 158,1131 157,1130 157,1129 155,1127 156,1126 156,1125 155,1124" />
<path d="M 942,1122 941,1123 942,1124 945,1124 946,1123 945,1122" />
<path d="M 371,1122 369,1124 367,1124 366,1125 366,1128 367,1129 365,1131 363,1131 363,1133 360,1136 360,1141 359,1142 359,1143 360,1144 360,1145 362,1145 363,1146 362,1147 361,1147 361,1262 363,1264 363,1365 362,1366 361,1365 361,1361 359,1359 359,1357 357,1355 358,1354 358,1346 357,1345 359,1343 359,1333 357,1331 358,1330 358,1155 357,1154 345,1154 344,1153 344,1152 345,1151 357,1151 358,1150 358,1149 357,1148 350,1148 349,1147 347,1147 346,1148 329,1148 328,1149 328,1151 333,1151 334,1152 334,1153 333,1154 326,1154 326,1349 327,1350 336,1350 337,1351 336,1352 325,1352 325,1366 327,1366 328,1367 363,1367 364,1366 367,1366 368,1367 368,1405 372,1409 373,1409 374,1408 376,1408 377,1409 855,1409 856,1408 862,1408 863,1409 864,1409 864,1407 866,1405 866,1372 864,1370 864,1369 867,1366 871,1366 871,1346 873,1344 873,1151 874,1150 874,1148 873,1147 873,1146 875,1144 875,1137 870,1132 871,1131 909,1131 910,1132 911,1132 911,1127 909,1127 908,1126 909,1125 909,1124 873,1124 873,1128 872,1129 870,1129 870,1130 869,1131 868,1130 868,1125 867,1124 860,1124 859,1125 859,1142 861,1144 861,1330 859,1332 859,1337 861,1339 859,1341 859,1368 858,1369 858,1373 859,1374 859,1377 858,1378 858,1385 857,1386 857,1398 858,1399 856,1401 855,1401 854,1400 854,1386 855,1385 855,1378 856,1377 856,1374 855,1373 855,1370 856,1369 856,1341 855,1340 720,1340 720,1388 722,1390 722,1399 720,1401 719,1401 718,1400 718,1340 517,1340 516,1341 516,1398 517,1399 534,1399 535,1400 534,1401 514,1401 513,1400 513,1399 514,1398 514,1340 381,1340 379,1342 379,1397 381,1399 398,1399 399,1400 398,1401 379,1401 379,1404 856,1404 857,1405 856,1406 378,1406 377,1405 377,1402 375,1400 377,1398 377,1390 375,1388 375,1379 377,1377 377,1362 375,1360 375,1309 377,1307 377,1256 376,1255 376,1254 375,1253 375,1252 377,1250 377,1247 375,1245 377,1243 377,1210 375,1208 375,1196 377,1194 377,1182 375,1180 375,1126 376,1125 377,1125 374,1122" />
<path d="M 240,1122 239,1123 240,1124 250,1124 251,1123 251,1122" />
<path d="M 1096,1121 1097,1120 1109,1120 1110,1121 1109,1122 1097,1122" />
<path d="M 1073,1121 1074,1120 1077,1120 1079,1122 1088,1122 1089,1123 1088,1124 1078,1124 1076,1122 1074,1124 1064,1124 1063,1123 1064,1122 1073,1122" />
<path d="M 325,1108 325,1121 324,1122 323,1122 323,1125 349,1125 350,1126 349,1127 324,1127 322,1129 321,1129 321,1130 322,1131 360,1131 361,1130 361,1124 326,1124 325,1123 326,1122 331,1122 333,1120 353,1120 355,1122 362,1122 364,1120 375,1120 377,1122 378,1122 380,1120 384,1120 386,1122 390,1122 392,1120 393,1121 393,1122 395,1122 397,1120 398,1121 398,1122 498,1122 500,1120 501,1120 503,1122 550,1122 552,1120 553,1120 555,1122 557,1122 559,1120 578,1120 579,1121 579,1122 601,1122 603,1120 612,1120 614,1122 653,1122 655,1120 658,1120 659,1121 659,1122 758,1122 758,1121 759,1120 760,1121 760,1122 782,1122 784,1120 816,1120 818,1122 822,1122 824,1120 837,1120 839,1122 895,1122 897,1120 909,1120 910,1119 910,1110 909,1109 909,1108 809,1108 809,1109 808,1110 806,1108 761,1108 759,1110 757,1110 756,1109 756,1108 745,1108 743,1110 726,1110 724,1108 710,1108 708,1110 705,1110 703,1108 649,1108 647,1110 613,1110 611,1108 572,1108 572,1109 571,1110 451,1110 449,1108" />
<path d="M 921,1105 922,1104 946,1104 947,1105 1078,1105 1079,1104 1089,1104 1090,1105 1102,1105 1103,1104 1104,1104 1105,1105 1107,1105 1108,1106 1108,1107 1107,1108 1105,1108 1104,1107 1103,1107 1102,1108 1090,1108 1089,1107 1079,1107 1078,1108 947,1108 946,1107 922,1107 921,1106" />
<path d="M 1087,1100 1088,1099 1091,1099 1092,1100 1091,1101 1088,1101" />
<path d="M 415,1099 416,1098 520,1098 521,1099 521,1100 520,1101 411,1101 410,1100 411,1099" />
<path d="M 396,1098 399,1098 401,1100 400,1101 395,1101 394,1100" />
<path d="M 337,1072 337,1094 347,1094 347,1076 349,1074 347,1072" />
<path d="M 1089,1067 1090,1066 1093,1066 1095,1068 1104,1068 1105,1067 1106,1067 1107,1068 1107,1070 1108,1071 1106,1073 1107,1074 1107,1087 1106,1088 1106,1092 1107,1093 1105,1095 1105,1097 1104,1098 1097,1098 1096,1097 1097,1096 1097,1082 1098,1081 1099,1081 1100,1082 1100,1096 1102,1096 1103,1095 1103,1088 1104,1087 1104,1073 1103,1072 1100,1072 1099,1073 1098,1073 1097,1072 1093,1072 1093,1095 1092,1096 1091,1096 1090,1095 1090,1072 1089,1071" />
<path d="M 885,1066 886,1066 887,1067 887,1068 893,1068 895,1070 896,1069 897,1069 898,1070 899,1069 899,1067 900,1066 901,1067 901,1095 900,1096 898,1096 897,1095 898,1094 899,1094 899,1072 887,1072 887,1094 892,1094 892,1080 893,1079 894,1080 894,1096 896,1096 897,1097 896,1098 894,1098 893,1099 888,1099 887,1100 885,1100 884,1101 757,1101 756,1100 744,1100 743,1101 602,1101 601,1100 593,1100 592,1101 559,1101 558,1100 555,1100 554,1101 552,1101 551,1100 532,1100 531,1099 532,1098 831,1098 832,1099 833,1099 834,1098 864,1098 865,1099 881,1099 882,1098 886,1098 887,1097 885,1095 885,1072 883,1070 883,1068" />
<path d="M 349,1063 349,1066 353,1070 351,1072 351,1086 349,1088 349,1099 361,1099 362,1098 369,1098 370,1099 391,1099 392,1100 391,1101 348,1101 347,1100 339,1100 338,1099 339,1098 344,1098 345,1097 345,1096 339,1096 339,1098 338,1099 336,1099 335,1100 332,1100 331,1101 320,1101 320,1103 321,1104 322,1104 323,1105 910,1105 911,1104 911,1101 897,1101 896,1100 897,1099 906,1099 907,1098 910,1098 911,1097 911,1069 912,1068 913,1068 913,1063 889,1063 889,1064 888,1065 886,1063" />
<path d="M 144,1063 144,1066 145,1067 145,1071 144,1072 144,1081 143,1082 142,1081 142,1073 141,1072 137,1072 136,1073 135,1073 134,1072 130,1072 130,1094 132,1096 135,1093 135,1081 136,1080 137,1081 137,1096 139,1096 140,1095 140,1094 141,1093 144,1096 144,1099 145,1100 144,1101 141,1101 140,1100 139,1100 138,1099 133,1099 132,1100 131,1100 130,1101 116,1101 116,1104 118,1106 117,1107 117,1119 118,1120 321,1120 321,1109 320,1108 318,1108 317,1107 316,1107 315,1108 263,1108 262,1107 241,1107 240,1108 162,1108 161,1107 152,1107 151,1108 129,1108 128,1107 128,1104 129,1103 130,1104 130,1106 133,1106 134,1105 151,1105 152,1104 161,1104 162,1105 240,1105 241,1104 262,1104 263,1105 315,1105 316,1104 317,1104 318,1103 317,1102 317,1101 316,1100 317,1099 321,1099 323,1097 323,1073 321,1071 321,1069 324,1066 325,1066 326,1067 326,1097 327,1098 334,1098 335,1097 335,1074 333,1072 333,1067 334,1066 336,1066 337,1067 337,1068 347,1068 347,1063 320,1063 318,1065 312,1065 310,1063" />
<path d="M 111,1063 111,1065 112,1066 114,1066 116,1068 116,1070 118,1072 117,1073 117,1096 118,1097 118,1098 119,1098 120,1099 122,1099 123,1098 127,1098 128,1097 128,1094 126,1092 126,1067 127,1066 128,1066 130,1068 141,1068 142,1067 142,1064 141,1063" />
<path d="M 524,1045 525,1044 709,1044 710,1045 716,1045 717,1044 730,1044 731,1045 737,1045 738,1044 761,1044 763,1046 762,1047 761,1047 759,1049 757,1047 711,1047 710,1048 709,1048 708,1049 707,1049 705,1047 695,1047 693,1049 689,1049 688,1048 688,1047 658,1047 656,1049 655,1049 653,1047 608,1047 606,1049 599,1049 597,1047 519,1047 518,1046 519,1045" />
<path d="M 920,1040 921,1039 922,1040 922,1041 921,1042 920,1041" />
<path d="M 946,1039 947,1038 948,1038 949,1039 948,1040 947,1040" />
<path d="M 1042,1034 1043,1033 1044,1034 1044,1035 1047,1038 1047,1039 1046,1040 1043,1040 1042,1039 1041,1039 1040,1038 1042,1036" />
<path d="M 295,1034 296,1033 297,1033 298,1034 297,1035 297,1036 298,1037 299,1037 300,1038 299,1039 296,1039 295,1038" />
<path d="M 236,1034 237,1033 238,1034 238,1037 237,1038 236,1037" />
<path d="M 192,1034 193,1033 194,1034 194,1038 198,1038 199,1039 198,1040 190,1040 189,1039 190,1038 190,1036 191,1035 192,1035" />
<path d="M 938,1032 939,1033 939,1036 935,1040 934,1039 934,1038 936,1036 936,1034" />
<path d="M 279,1033 280,1032 281,1033 281,1034 283,1036 283,1039 282,1040 280,1040 279,1039 279,1037 278,1037 277,1036 277,1034 278,1033" />
<path d="M 263,1033 264,1032 265,1032 266,1033 268,1033 269,1034 269,1037 267,1039 265,1039 263,1037 264,1036 264,1034" />
<path d="M 232,1033 233,1032 234,1033 234,1037 233,1038 232,1037" />
<path d="M 202,1033 203,1032 204,1032 206,1034 206,1038 207,1038 208,1039 207,1040 203,1040 202,1039 203,1038 203,1034" />
<path d="M 1028,1031 1030,1031 1031,1032 1031,1033 1030,1034 1030,1035 1031,1036 1028,1039 1026,1037 1026,1033" />
<path d="M 1014,1032 1015,1031 1016,1031 1018,1033 1018,1035 1016,1037 1014,1037 1013,1036 1013,1035 1014,1034" />
<path d="M 1000,1031 1002,1033 1002,1035 1003,1035 1004,1036 1004,1037 1002,1039 1000,1037 999,1037 998,1036 998,1033" />
<path d="M 986,1031 987,1031 988,1032 988,1037 987,1038 986,1037 985,1037 984,1036 984,1035 983,1034" />
<path d="M 969,1032 970,1031 973,1031 974,1032 974,1036 971,1039 970,1039 969,1038" />
<path d="M 218,1031 219,1031 220,1032 220,1033 221,1033 222,1034 222,1039 221,1040 217,1040 216,1039 217,1038 217,1034 216,1033" />
<path d="M 248,1031 249,1030 251,1032 251,1033 250,1034 250,1038 251,1039 250,1040 249,1040 248,1039" />
<path d="M 482,1028 486,1028 487,1029 487,1032 486,1033 485,1033 484,1032 385,1032 384,1031 385,1030 480,1030" />
<path d="M 1040,1024 1041,1023 1045,1023 1046,1024 1045,1025 1046,1026 1044,1028 1041,1028 1040,1027" />
<path d="M 236,1024 237,1023 238,1024 238,1025 237,1026 236,1025" />
<path d="M 1015,1021 1017,1021 1018,1022 1018,1024 1019,1025 1019,1026 1017,1028 1014,1025 1013,1025 1012,1024" />
<path d="M 986,1022 987,1021 988,1022 988,1024 989,1024 990,1025 987,1028 985,1026 985,1025 986,1024" />
<path d="M 937,1022 938,1021 939,1022 939,1024 940,1024 941,1025 938,1028 937,1028 934,1025 935,1024 936,1024 937,1023" />
<path d="M 540,1021 541,1022 541,1023 536,1028 535,1028 534,1027" />
<path d="M 295,1022 296,1021 297,1021 300,1024 300,1025 297,1028 297,1029 296,1030 295,1029" />
<path d="M 265,1021 266,1021 269,1024 269,1025 266,1028 265,1028 263,1026 264,1025 264,1024 263,1023" />
<path d="M 232,1022 233,1021 234,1022 234,1026 235,1026 236,1027 235,1028 233,1028 232,1027" />
<path d="M 201,1022 202,1021 203,1021 204,1022 204,1023 206,1025 206,1027 205,1028 202,1028 201,1027" />
<path d="M 193,1021 194,1022 194,1026 195,1026 196,1027 195,1028 191,1028 190,1027 190,1024" />
<path d="M 1026,1020 1027,1019 1029,1019 1030,1020 1030,1027 1029,1028 1027,1028 1026,1027" />
<path d="M 1000,1020 1001,1019 1002,1019 1004,1021 1004,1025 1003,1026 1001,1026 998,1023 998,1022 999,1021 1000,1021" />
<path d="M 969,1020 970,1019 971,1019 974,1022 974,1024 973,1025 972,1025 971,1026 971,1027 970,1028 967,1025 967,1024 969,1022" />
<path d="M 279,1020 280,1019 282,1019 283,1020 283,1027 282,1028 280,1028 277,1025 277,1022 278,1021 279,1021" />
<path d="M 218,1019 219,1019 220,1020 220,1022 222,1024 222,1025 219,1028 216,1028 215,1027 215,1024 216,1023 216,1021" />
<path d="M 540,1019 541,1018 542,1018 543,1019 541,1021 540,1020" />
<path d="M 248,1019 249,1018 252,1021 252,1023 253,1024 253,1025 250,1028 249,1028 248,1027" />
<path d="M 384,1018 385,1017 391,1017 392,1018 397,1018 398,1017 465,1017 466,1018 484,1018 486,1020 485,1021 466,1021 465,1020 398,1020 397,1021 392,1021 391,1020 385,1020 384,1019" />
<path d="M 746,1017 747,1016 757,1016 758,1017 759,1017 760,1018 785,1018 786,1017 801,1017 802,1018 803,1017 805,1017 807,1019 810,1019 811,1018 848,1018 849,1019 849,1020 848,1021 806,1021 805,1020 804,1020 803,1021 802,1021 801,1020 786,1020 785,1021 747,1021 746,1020" />
<path d="M 933,1011 934,1010 935,1011 935,1012 934,1013 933,1012" />
<path d="M 1014,1008 1015,1007 1018,1007 1019,1008 1018,1009 1016,1009 1016,1011 1015,1012 1014,1011" />
<path d="M 204,1007 205,1007 206,1008 206,1010 204,1012 204,1013 205,1014 203,1016 202,1015 202,1014 201,1013 201,1010" />
<path d="M 1043,1005 1044,1006 1044,1007 1046,1009 1045,1010 1045,1013 1046,1014 1044,1016 1041,1016 1040,1015 1040,1008" />
<path d="M 1026,1006 1027,1005 1029,1005 1030,1006 1030,1013 1029,1014 1027,1014 1026,1013" />
<path d="M 1000,1006 1001,1005 1002,1005 1004,1007 1004,1013 1003,1014 1001,1014 1000,1013" />
<path d="M 986,1005 987,1005 988,1006 987,1007 987,1008 986,1009 986,1010 985,1011 984,1010 984,1007" />
<path d="M 969,1006 970,1005 971,1005 974,1008 974,1011 971,1014 970,1014 969,1013" />
<path d="M 953,1006 954,1005 955,1005 959,1009 955,1013 955,1022 956,1023 957,1023 958,1024 957,1025 957,1027 956,1028 955,1028 955,1033 957,1033 959,1035 958,1036 959,1037 957,1039 955,1039 953,1037 953,1027 951,1025 951,1024 953,1022 953,1009 952,1009 951,1008 952,1007 953,1007" />
<path d="M 936,1006 937,1005 938,1005 939,1006 939,1017 940,1018 939,1019 938,1019 937,1018 937,1014 936,1013 937,1012 937,1009 936,1008" />
<path d="M 519,1006 520,1005 521,1006 521,1008 523,1010 521,1012 521,1027 523,1029 523,1031 527,1031 528,1032 527,1033 520,1033 519,1032 519,1026 518,1025 518,1008 519,1007" />
<path d="M 295,1006 296,1005 299,1005 300,1006 299,1007 298,1007 297,1008 297,1012 299,1014 297,1016 296,1016 295,1015" />
<path d="M 279,1006 280,1005 282,1005 283,1006 283,1015 282,1016 277,1011 277,1010 278,1009 279,1009" />
<path d="M 265,1006 266,1005 267,1006 267,1015 266,1016 265,1016 263,1014 264,1013 264,1010 263,1009 265,1007" />
<path d="M 248,1006 249,1005 250,1005 252,1007 251,1008 251,1011 252,1012 250,1014 249,1014 248,1013" />
<path d="M 235,1005 236,1006 236,1013 235,1014 232,1011 232,1008" />
<path d="M 218,1005 219,1005 220,1006 220,1015 219,1016 218,1016 216,1014 217,1013 217,1008 216,1007" />
<path d="M 192,1006 193,1005 194,1006 194,1015 193,1016 191,1014 190,1014 189,1013 192,1010" />
<path d="M 384,1005 385,1004 486,1004 487,1005 487,1010 486,1011 484,1009 480,1009 479,1008 479,1007 385,1007 384,1006" />
<path d="M 554,1003 555,1002 556,1003 556,1031 555,1032 555,1034 554,1035 553,1035 552,1034 552,1033 545,1033 544,1032 545,1031 551,1031 552,1030 552,1029 553,1028 553,1013 552,1012 554,1010" />
<path d="M 533,1000 534,1000 536,1002 540,1002 542,1004 543,1004 546,1007 546,1010 545,1011 539,1005 538,1005 537,1004 532,1004 531,1005 527,1005 526,1004 525,1004 523,1006 522,1005 522,1004 524,1002 531,1002" />
<path d="M 378,1001 379,1000 380,1001 380,1039 379,1040 378,1039" />
<path d="M 125,993 123,995 123,1044 124,1044 125,1045 129,1045 130,1044 144,1044 145,1045 185,1045 186,1044 195,1044 196,1045 199,1045 200,1044 204,1044 205,1045 213,1045 214,1044 221,1044 222,1045 223,1045 224,1044 261,1044 262,1045 267,1045 268,1044 294,1044 296,1042 297,1042 299,1044 310,1044 310,1038 311,1037 312,1037 313,1038 313,1043 312,1044 313,1045 314,1045 315,1044 380,1044 381,1045 383,1045 384,1044 423,1044 424,1045 437,1045 438,1044 508,1044 509,1045 515,1045 516,1046 515,1047 350,1047 348,1049 346,1047 299,1047 299,1049 298,1050 297,1050 296,1049 268,1049 266,1047 256,1047 254,1049 244,1049 242,1047 193,1047 191,1049 190,1048 190,1047 126,1047 125,1048 124,1048 123,1049 120,1049 118,1047 97,1047 97,1048 96,1049 97,1050 97,1051 98,1051 100,1053 98,1055 98,1057 100,1059 190,1059 191,1058 193,1058 194,1059 244,1059 245,1058 246,1058 247,1059 298,1059 300,1057 300,1055 298,1053 298,1052 299,1051 301,1051 302,1052 302,1054 303,1054 304,1055 304,1057 305,1058 308,1058 309,1059 500,1059 501,1058 502,1058 503,1059 552,1059 553,1058 554,1058 555,1059 653,1059 654,1058 655,1058 656,1059 932,1059 932,1055 933,1054 934,1055 934,1059 1015,1059 1016,1058 1017,1058 1018,1059 1022,1059 1023,1058 1031,1058 1032,1059 1068,1059 1069,1058 1071,1058 1072,1059 1094,1059 1095,1058 1100,1058 1101,1059 1129,1059 1130,1058 1133,1058 1134,1057 1134,1053 1135,1052 1136,1052 1136,1048 1135,1047 1130,1047 1128,1049 1109,1049 1107,1047 1045,1047 1043,1049 1041,1047 1018,1047 1018,1048 1017,1049 1015,1047 970,1047 968,1049 965,1049 963,1047 961,1049 959,1047 942,1047 940,1049 936,1049 936,1053 935,1054 934,1053 934,1048 933,1047 921,1047 919,1049 912,1049 910,1047 895,1047 893,1049 884,1049 883,1048 883,1047 874,1047 872,1049 848,1049 846,1047 810,1047 808,1049 806,1047 777,1047 776,1046 777,1045 791,1045 792,1044 938,1044 939,1045 951,1045 952,1044 1043,1044 1044,1045 1056,1045 1057,1044 1059,1044 1060,1045 1066,1045 1067,1044 1068,1045 1110,1045 1110,1031 1111,1030 1111,1029 1112,1028 1112,1012 1110,1010 1110,996 1107,993 1106,993 1104,995 1093,995 1091,993 968,993 966,995 964,993 857,993 856,994 856,1037 855,1038 854,1038 852,1036 852,1034 850,1032 839,1032 838,1033 816,1033 815,1032 811,1032 810,1033 802,1033 801,1032 753,1032 752,1033 747,1033 746,1032 746,1029 747,1028 749,1030 806,1030 808,1028 810,1030 851,1030 852,1029 852,1006 845,1006 847,1008 846,1009 843,1009 841,1007 750,1007 748,1009 748,1010 747,1011 746,1010 746,1005 747,1004 844,1004 845,1003 852,1003 852,994 851,993 315,993 313,995 291,995 289,993 280,993 278,995 266,995 264,993 258,993 256,995 249,995 247,993 231,993 231,994 230,995 216,995 214,993" />
<path d="M 557,988 556,989 556,991 558,991 558,989" />
<path d="M 716,985 717,984 720,984 721,985 720,986 717,986" />
<path d="M 502,984 503,983 504,984 504,986 505,987 504,988 503,988 502,987" />
<path d="M 373,980 374,979 375,980 375,985 374,986 320,986 319,985 320,984 369,984 370,983 372,983 373,982" />
<path d="M 870,978 871,977 910,977 911,978 910,979 871,979" />
<path d="M 690,978 691,977 724,977 725,978 724,979 691,979" />
<path d="M 325,978 326,977 351,977 352,978 351,979 326,979" />
<path d="M 318,978 319,977 322,977 323,978 322,979 319,979" />
<path d="M 878,973 879,972 882,972 883,973 882,974 879,974" />
<path d="M 692,973 693,972 722,972 723,973 722,974 693,974" />
<path d="M 868,972 869,971 870,972 875,972 876,973 875,974 869,974 868,973" />
<path d="M 716,968 717,967 719,967 720,968 719,969 717,969" />
<path d="M 330,968 331,967 332,967 333,968 332,969 331,969" />
<path d="M 689,966 690,965 698,965 699,966 698,967 693,967 692,968 692,971 691,972 690,971 690,968 689,967" />
<path d="M 511,964 511,967 512,967 513,968 513,969 511,971 511,972 547,972 547,969 546,968 547,967 547,964 523,964 522,965 521,964 518,964 518,966 517,967 514,964" />
<path d="M 323,963 324,962 325,962 326,963 326,964 328,966 328,968 326,970 328,972 353,972 354,973 353,974 318,974 318,975 317,976 316,975 316,973 317,972 319,972 320,971 321,971 322,970 323,970" />
<path d="M 698,962 696,964 689,964 687,966 687,972 689,972 690,973 689,974 680,974 680,975 679,976 675,972 674,972 673,973 673,977 675,979 675,986 677,986 678,987 676,989 678,991 683,991 684,990 733,990 734,989 732,987 732,986 733,985 734,986 735,986 735,985 734,984 734,982 732,980 734,978 734,977 733,976 728,976 724,972 724,971 725,970 725,966 724,966 723,965 719,965 718,964 712,964 711,963 711,962" />
<path d="M 788,923 789,922 790,923 790,926 789,927 788,926" />
<path d="M 608,923 609,922 611,922 612,923 612,926 611,927 608,924" />
<path d="M 195,922 196,921 197,921 198,922 198,981 197,982 196,982 195,981" />
<path d="M 615,914 616,913 617,914 617,919 618,920 620,920 621,921 621,923 620,924 618,922 616,924 615,923 615,922 614,921 615,920" />
<path d="M 309,914 310,913 311,914 311,928 310,929 309,928" />
<path d="M 854,902 855,901 856,902 856,970 855,971 854,970" />
<path d="M 195,845 196,844 197,844 198,845 198,846 197,847 196,847 195,846" />
<path d="M 615,839 616,838 617,839 617,841 619,843 618,844 617,844 617,860 616,861 615,860" />
<path d="M 987,835 986,836 986,837 985,838 985,841 986,842 986,843 985,844 985,857 986,858 986,867 985,868 985,870 986,871 986,985 985,986 985,990 1036,990 1037,989 1037,975 1038,974 1038,938 1037,937 1037,930 1038,929 1038,837 1036,835" />
<path d="M 739,835 739,836 738,837 737,837 737,903 739,905 739,914 737,916 737,989 738,990 763,990 764,991 770,991 771,990 792,990 793,989 793,836 792,835" />
<path d="M 562,835 561,836 561,988 562,989 562,990 566,990 567,991 599,991 600,990 614,990 615,989 615,977 617,975 617,973 615,971 615,928 616,927 618,927 619,928 619,987 617,989 618,990 622,990 623,991 627,991 628,990 649,990 650,991 653,991 654,990 670,990 671,989 671,846 673,844 673,836 672,835 619,835 617,837 615,835" />
<path d="M 443,835 443,991 446,991 447,990 456,990 457,991 477,991 478,990 496,990 497,989 497,844 496,844 495,843 495,835" />
<path d="M 388,835 386,837 386,866 387,867 387,884 386,885 386,972 387,973 387,975 386,976 386,990 402,990 403,991 430,991 431,990 439,990 439,835 400,835 398,837 397,837 395,835" />
<path d="M 309,796 310,795 311,796 311,884 310,885 309,884" />
<path d="M 987,765 985,767 985,770 986,771 986,790 985,791 985,815 986,816 986,832 987,833 1038,833 1038,765" />
<path d="M 797,765 795,767 795,833 848,833 849,832 849,811 848,810 848,793 849,792 849,767 848,766 848,765" />
<path d="M 736,765 736,767 737,768 737,825 739,827 739,832 740,833 792,833 793,832 793,766 792,765" />
<path d="M 619,765 619,833 672,833 673,832 673,766 672,765" />
<path d="M 562,765 562,766 561,767 561,832 562,833 615,833 615,815 617,813 617,811 615,809 615,765" />
<path d="M 444,765 443,766 443,832 444,833 495,833 495,778 496,777 497,777 497,769 496,769 495,768 495,766 494,765" />
<path d="M 386,765 386,831 388,833 439,833 439,765" />
<path d="M 855,761 856,760 857,760 858,761 858,772 857,773 856,773 855,772" />
<path d="M 734,754 735,753 856,753 858,755 857,756 735,756 734,755" />
<path d="M 557,753 590,753 591,754 596,754 597,753 677,753 679,755 679,756 677,758 675,756 597,756 596,757 591,757 590,756 557,756 556,757 555,756 555,755" />
<path d="M 338,737 339,736 340,736 341,737 340,738 340,740 339,741 338,740" />
<path d="M 843,709 844,708 845,709 845,712 844,713 842,711 801,711 800,710 801,709" />
<path d="M 796,708 797,707 798,708 798,709 796,711 792,711 791,710 791,709 792,708" />
<path d="M 798,707 799,706 800,706 801,707 800,708 799,708" />
<path d="M 742,705 743,704 744,705 744,708 745,709 787,709 788,710 787,711 743,711 742,710" />
<path d="M 784,703 785,702 788,705 787,706 785,706 784,705" />
<path d="M 453,699 454,699 455,700 447,708 446,708 445,707 445,706 447,704 448,704 448,703 450,701 451,701" />
<path d="M 664,698 665,697 666,698 666,705 665,706 662,703 663,702 664,702" />
<path d="M 603,698 604,697 605,698 605,700 604,701 603,700" />
<path d="M 764,696 765,697 765,698 764,699 763,699 762,698" />
<path d="M 594,697 595,696 596,696 597,697 599,697 600,698 597,701 594,701 593,700 594,699" />
<path d="M 411,697 412,696 413,696 414,697 414,698 413,699 412,699 411,698" />
<path d="M 831,696 832,695 837,695 838,696 838,698 837,699 834,699" />
<path d="M 767,696 768,695 778,695 779,696 778,697 775,697 773,699 768,699 767,698" />
<path d="M 758,695 759,695 760,696 760,698 759,699 757,699 756,698 756,697" />
<path d="M 577,696 578,695 590,695 591,696 591,698 588,701 582,701 580,699 580,698 579,697 578,697" />
<path d="M 467,696 468,695 480,695 481,696 481,698 480,699 470,699" />
<path d="M 415,696 416,695 417,695 419,697 419,698 418,699" />
<path d="M 396,696 397,695 408,695 410,697 410,698 409,699 407,699 405,697 404,697 402,699 400,699 399,698 398,698 397,699 396,698" />
<path d="M 808,695 809,694 811,694 812,695 828,695 830,697 830,700 829,701 828,700 828,699 826,697 825,698 824,698 823,699 817,699 816,698 814,698 813,699 811,699 808,696" />
<path d="M 648,695 649,694 658,694 659,695 659,698 660,699 660,700 659,701 658,701 657,700 657,699 656,699 654,697 653,697 652,696 649,696" />
<path d="M 635,695 636,694 639,694 640,695 643,695 645,697 646,697 647,698 646,699 637,699 636,698 636,696" />
<path d="M 459,694 463,694 465,696 464,697 458,697 457,696" />
<path d="M 451,693 452,692 453,692 454,693 454,694 453,695 452,695 451,694" />
<path d="M 431,693 432,692 433,693 433,699 435,699 436,700 436,701 435,702 433,702 431,700" />
<path d="M 784,691 785,690 786,691 786,693 785,694 784,693" />
<path d="M 450,690 451,689 452,690 452,691 451,692 450,691" />
<path d="M 432,690 433,689 434,689 435,690 433,692 432,691" />
<path d="M 845,688 846,687 847,688 847,693 845,695 845,703 844,704 843,703 843,691 844,690 845,690" />
<path d="M 804,686 805,685 844,685 845,686 844,687 805,687" />
<path d="M 742,686 743,685 801,685 802,686 802,688 805,691 805,700 806,701 806,702 804,704 804,705 803,706 802,706 801,705 801,704 803,702 803,692 800,689 799,689 798,688 798,687 790,687 789,688 788,688 787,687 745,687 744,688 744,694 743,695 742,694" />
<path d="M 607,686 608,685 611,685 612,686 610,688 610,689 607,692 607,693 606,694 605,694 604,695 603,694 603,693 605,691 605,689 607,687" />
<path d="M 568,685 604,685 605,686 604,687 569,687 568,688 568,692 569,693 569,694 570,695 570,700 568,702 568,708 569,709 607,709 608,710 607,711 568,711 566,709 566,701 567,700 567,695 566,694 566,687" />
<path d="M 389,686 390,685 489,685 490,686 490,710 489,711 449,711 448,710 449,709 488,709 488,687 437,687 435,689 434,688 434,687 391,687 391,695 393,697 393,701 391,703 391,709 443,709 444,710 443,711 390,711 389,710" />
<path d="M 617,684 618,683 621,683 623,685 667,685 668,686 668,693 667,694 666,693 666,689 665,689 664,688 664,687 626,687 626,688 629,691 629,696 631,698 628,701 628,703 627,704 626,704 626,705 623,708 619,708 619,709 665,709 666,710 665,711 616,711 613,708 610,708 605,703 605,702 606,701 611,706 621,706 626,701 626,691 622,687 621,687 620,686 620,685 618,685" />
<path d="M 847,681 848,680 851,680 852,681 852,715 850,717 847,717 846,716 846,715 847,714 850,714 850,685 849,684 849,683" />
<path d="M 743,681 744,680 809,680 810,681 809,682 744,682" />
<path d="M 737,681 738,680 740,680 741,681 740,682 739,682 739,714 741,714 742,715 742,716 741,717 739,717 737,715" />
<path d="M 643,681 644,680 674,680 675,681 675,693 674,694 671,691 671,682 644,682" />
<path d="M 610,681 611,680 612,680 613,681 612,682 611,682" />
<path d="M 559,681 560,680 567,680 568,681 567,682 563,682 563,712 562,713 562,714 565,714 566,715 566,716 565,717 562,717 561,716 560,716 559,715 559,713 560,712 560,705 559,704 561,702 561,696 559,694 560,693 560,682" />
<path d="M 481,681 482,680 496,680 497,681 497,682 495,684 495,715 493,717 492,717 491,716 491,715 492,714 493,714 493,682 482,682" />
<path d="M 382,681 383,680 450,680 451,681 450,682 384,682 384,683 386,685 386,714 389,714 390,715 390,716 389,717 386,717 385,716 383,716 382,715" />
<path d="M 614,679 615,678 621,678 622,679 621,680 615,680" />
<path d="M 338,679 339,678 340,679 340,693 341,694 340,695 339,695 338,694" />
<path d="M 1021,665 1022,664 1032,664 1035,667 1034,668 1024,668" />
<path d="M 397,665 398,664 400,666 398,668 395,668 394,667 395,666 397,666" />
<path d="M 392,664 393,665 393,666 392,667 391,667 390,666" />
<path d="M 748,664 748,666 752,666 753,665 752,664" />
<path d="M 833,663 834,662 835,663 835,664 845,664 845,663 846,662 847,663 847,667 846,668 834,668 833,667" />
<path d="M 744,663 745,662 753,662 755,664 755,666 753,668 747,668 745,666 742,666 740,664 741,663 742,663 743,664 744,664" />
<path d="M 667,663 668,662 670,664 669,665 669,667 668,668 657,668 655,666 655,665 656,664 665,664 667,666" />
<path d="M 484,662 485,663 485,664 487,664 489,666 490,665 490,663 491,662 492,663 492,667 491,668 482,668 481,667 481,666 480,665 481,664 482,664" />
<path d="M 387,663 388,662 389,663 389,665 388,666 387,665" />
<path d="M 290,663 291,662 292,663 292,664 300,664 300,663 301,662 302,663 302,665 299,668 291,668 290,667" />
<path d="M 199,663 200,662 210,662 212,664 212,666 210,668 202,668 199,665" />
<path d="M 930,662 931,661 932,661 933,662 932,663 933,664 942,664 943,663 944,663 945,664 941,668 935,668 933,666 931,666 930,665" />
<path d="M 575,662 576,661 577,662 577,667 576,668 566,668 565,667 565,663 566,662 567,662 569,664 571,664 573,662" />
<path d="M 922,653 923,652 937,652 938,653 953,653 954,654 966,654 967,653 1033,653 1034,652 1043,652 1044,653 1044,654 1043,655 1034,655 1033,656 967,656 966,657 954,657 953,656 938,656 937,655 934,655 932,657 931,657 929,655 923,655 922,654" />
<path d="M 734,653 735,652 759,652 760,653 807,653 808,652 810,654 823,654 825,652 855,652 856,653 856,654 855,655 852,655 850,657 806,657 805,656 760,656 759,655 735,655 734,654" />
<path d="M 554,653 555,652 592,652 593,653 603,653 604,652 615,652 616,653 669,653 670,652 677,652 678,653 678,656 677,657 672,657 671,656 616,656 615,655 606,655 604,657 603,656 593,656 592,655 563,655 561,657 557,657 554,654" />
<path d="M 379,653 380,652 421,652 422,653 438,653 439,652 499,652 501,654 500,655 492,655 491,656 490,656 489,657 465,657 464,656 463,656 462,655 453,655 451,657 449,657 448,656 447,656 446,655 439,655 438,656 422,656 421,655 401,655 399,657 398,657 396,655 391,655 390,656 389,656 388,657 386,657 384,655 381,655" />
<path d="M 189,653 190,652 254,652 255,653 303,653 304,652 310,652 311,653 311,654 310,655 304,655 303,656 255,656 254,655 251,655 249,657 245,657 243,655 213,655 211,657 210,657 208,655 202,655 200,657 196,657 194,655 190,655 189,654" />
<path d="M 338,646 339,645 340,646 340,653 341,654 340,655 339,655 338,654" />
<path d="M 338,634 339,633 340,634 340,639 341,640 340,641 339,641 338,640" />
<path d="M 338,618 339,617 340,618 340,625 341,626 340,627 339,627 338,626" />
<path d="M 697,604 698,603 699,604 699,627 698,628 697,628 697,632 699,634 699,644 697,646 697,654 696,655 695,654 695,620 697,618" />
<path d="M 922,592 923,591 924,592 924,647 923,648 922,648 921,647 922,646" />
<path d="M 697,578 698,577 699,578 699,600 698,601 697,600" />
<path d="M 378,578 379,577 380,578 380,646 379,647 378,646" />
<path d="M 340,573 341,572 342,573 342,574 341,575 340,574" />
<path d="M 987,567 985,569 985,594 986,595 986,644 987,645 1036,645 1038,643 1038,636 1037,635 1037,618 1038,617 1038,612 1037,611 1037,571 1038,570 1038,567" />
<path d="M 929,567 929,645 982,645 983,644 983,568 982,567" />
<path d="M 739,567 739,583 737,585 737,590 739,592 739,644 740,645 792,645 793,644 793,568 792,567" />
<path d="M 619,567 619,645 670,645 671,644 671,606 673,604 673,602 671,600 671,595 672,594 673,594 673,569 671,567" />
<path d="M 562,567 561,568 561,644 562,645 615,645 615,567" />
<path d="M 443,567 443,644 444,645 494,645 495,644 495,567" />
<path d="M 386,567 386,594 387,595 387,618 386,619 386,633 387,634 387,644 388,645 439,645 439,567" />
<path d="M 198,567 198,645 247,645 248,644 248,567" />
<path d="M 854,545 855,544 856,545 856,546 855,547 854,546" />
<path d="M 850,545 851,544 852,545 852,546 851,547 850,546" />
<path d="M 378,545 379,544 380,545 380,569 379,570 378,569" />
<path d="M 309,543 310,542 311,543 311,555 310,556 309,555" />
<path d="M 898,525 898,532 897,533 897,759 898,760 898,810 897,811 897,914 898,915 898,960 904,960 904,539 902,537 903,536 903,526 902,525" />
<path d="M 889,525 889,960 895,960 895,915 894,914 894,811 895,810 895,760 894,759 894,533 895,532 895,525" />
<path d="M 881,525 880,526 880,960 885,960 885,525" />
<path d="M 537,525 537,765 538,765 539,766 539,773 538,774 537,774 537,782 539,784 539,801 538,802 537,802 537,810 538,810 539,811 539,848 538,849 537,849 537,867 539,869 539,872 537,874 537,904 538,904 539,905 539,916 538,917 537,917 537,939 538,939 539,940 539,960 543,960 544,959 544,567 543,567 542,566 542,525" />
<path d="M 530,525 530,960 535,960 535,527 533,525" />
<path d="M 524,525 523,526 523,566 521,568 521,957 523,959 523,960 526,960 526,525" />
<path d="M 515,525 515,544 514,545 514,661 515,662 513,664 513,833 515,835 513,837 513,888 515,890 514,891 514,897 515,898 513,900 513,941 515,943 514,944 514,954 515,955 513,957 513,958 515,960 519,960 519,538 520,537 521,537 521,525" />
<path d="M 358,525 358,565 356,567 356,606 358,608 358,619 356,621 356,658 358,660 358,924 356,926 356,956 358,958 358,960 362,960 363,959 363,592 361,590 361,525" />
<path d="M 330,525 330,960 338,960 338,914 339,913 340,914 340,959 341,960 345,960 345,913 347,911 347,910 345,908 345,874 346,873 347,873 347,844 345,842 345,827 346,826 347,826 347,814 346,814 345,813 345,733 346,732 347,732 347,722 345,720 345,718 347,716 347,710 345,708 345,688 347,686 347,677 345,675 345,625 346,624 347,624 347,586 346,586 345,585 345,575 347,573 347,525 343,525 342,526 342,569 341,570 340,569 340,525" />
<path d="M 715,523 715,524 714,525 713,525 713,958 715,960 719,960 720,959 720,526 717,523" />
<path d="M 694,522 694,523 698,523 699,524 699,573 698,574 697,573 697,525 692,525 692,548 690,550 690,959 691,960 695,960 695,662 696,661 697,662 697,959 698,960 702,960 704,958 704,943 703,943 702,942 702,928 703,927 704,927 704,910 702,908 702,904 704,902 704,889 703,889 702,888 702,866 704,864 704,835 703,835 702,834 702,817 704,815 704,776 702,774 702,765 704,763 704,525 703,525 702,524 702,522" />
<path d="M 881,520 882,519 883,520 883,521 882,522 881,521" />
<path d="M 378,519 379,518 380,519 380,538 379,539 378,538" />
<path d="M 309,515 310,514 311,515 311,539 310,540 309,539" />
<path d="M 883,512 884,511 885,512 885,515 884,516 883,515" />
<path d="M 878,508 879,507 880,508 880,513 879,514 878,513" />
<path d="M 702,507 703,506 704,507 704,508 703,509 702,508" />
<path d="M 347,507 348,506 349,507 349,508 348,509 347,508" />
<path d="M 340,507 341,506 342,507 342,508 341,509 340,508" />
<path d="M 354,505 355,504 356,505 356,506 355,507 354,506" />
<path d="M 523,500 524,499 534,499 535,500 534,501 524,501" />
<path d="M 879,499 877,501 875,501 874,502 872,502 871,503 871,506 873,508 873,515 871,517 871,518 873,520 877,520 878,521 878,522 879,523 885,523 885,521 886,520 901,520 903,518 903,512 902,511 904,509 904,504 901,501 900,501 899,500 899,499 894,499 892,501 890,501 888,499 886,499 884,501 883,501 881,499" />
<path d="M 351,497 352,497 353,498 353,499 351,501 348,501 347,500 348,499 349,499" />
<path d="M 340,498 341,497 343,497 345,499 345,500 344,501 342,501 340,499" />
<path d="M 712,497 710,499 696,499 694,501 692,501 690,503 690,518 692,520 693,520 694,519 702,519 703,520 720,520 721,519 721,502 720,501 719,501 718,500 718,499 717,499 716,498 716,497" />
<path d="M 522,497 518,501 516,501 515,502 512,502 511,503 515,507 514,508 514,518 516,520 517,520 518,521 519,521 519,505 520,504 521,505 521,520 523,522 523,523 524,523 527,520 529,520 530,519 533,519 534,520 536,518 537,519 538,519 539,520 542,520 543,519 544,519 544,503 540,499 538,499 536,497" />
<path d="M 682,496 683,495 684,495 685,496 684,497 683,497" />
<path d="M 508,496 509,495 510,495 511,496 510,497 509,497" />
<path d="M 906,495 907,494 908,495 912,495 913,496 912,497 907,497 906,496" />
<path d="M 369,495 370,494 371,494 372,495 372,496 371,497 368,497 367,496 368,495" />
<path d="M 986,494 986,514 985,515 985,519 986,520 986,540 985,541 985,544 986,545 986,552 985,553 985,559 986,560 986,564 987,565 1036,565 1037,564 1037,494" />
<path d="M 894,494 894,497 895,497 896,496 896,495 895,494" />
<path d="M 739,494 739,498 738,499 738,500 739,501 739,564 740,565 792,565 793,564 793,494" />
<path d="M 563,494 563,508 562,509 562,510 561,511 561,563 562,564 562,565 614,565 616,563 618,563 620,565 670,565 671,564 671,557 673,555 673,540 671,538 671,517 673,515 673,512 671,510 671,494 619,494 619,534 618,535 615,532 615,516 617,514 617,499 616,499 615,498 615,494" />
<path d="M 443,494 443,552 442,553 442,554 443,555 443,564 444,565 494,565 495,564 495,494" />
<path d="M 386,494 386,565 439,565 439,549 441,547 441,543 439,541 439,500 441,498 441,496 439,494" />
<path d="M 335,494 335,496 337,498 336,499 335,499 335,500 333,502 331,502 330,503 330,519 331,520 332,519 338,519 340,521 340,522 341,523 345,523 345,522 344,522 343,521 343,520 344,519 347,519 348,518 349,519 350,519 351,520 361,520 362,519 363,519 363,505 355,497 353,497 352,496 352,494 351,494 350,495 349,494 347,494 346,495 345,494 344,494 343,495 342,494 341,494 340,495 340,496 339,497 338,497 337,496 338,495 338,494" />
<path d="M 198,494 198,565 247,565 248,564 248,494" />
<path d="M 913,493 914,492 915,493 915,494 914,495 913,494" />
<path d="M 551,493 552,492 554,492 555,493 555,494 552,497 548,497 547,496 547,495 548,494 549,494 550,495 551,495" />
<path d="M 980,492 978,494 929,494 929,564 930,565 982,565 983,564 983,493 982,492" />
<path d="M 1043,491 1044,490 1045,490 1046,491 1046,645 1047,646 1045,648 1044,648 1043,647" />
<path d="M 923,491 924,490 1039,490 1040,491 1040,646 1039,647 926,647 925,646 927,644 927,499 926,499 925,500 925,512 924,513 923,512" />
<path d="M 321,491 322,490 323,491 323,495 327,495 328,496 327,497 322,497 321,496" />
<path d="M 197,490 308,490 309,491 309,501 307,503 307,550 306,551 306,555 305,556 304,556 303,555 303,551 304,550 304,503 303,502 305,500 305,494 252,494 251,495 251,563 252,564 252,565 302,565 303,566 302,567 252,567 251,568 251,644 252,645 305,645 305,569 306,568 307,569 307,644 308,645 309,644 309,569 310,568 311,569 311,646 310,647 197,647 195,645 195,567 196,566 195,565 195,494 196,493 195,492" />
<path d="M 908,489 909,488 912,488 913,489 913,491 912,492 911,491 911,490 909,490" />
<path d="M 864,489 865,488 866,489 866,495 868,495 869,496 868,497 865,497 864,496 864,494 862,492 864,490" />
<path d="M 730,489 731,488 732,489 732,494 729,497 726,497 725,496 726,495 728,495 730,493" />
<path d="M 725,489 726,488 727,489 727,491 726,492 725,491" />
<path d="M 548,489 549,488 551,488 552,489 551,490 549,490" />
<path d="M 511,489 512,488 513,488 514,489 513,490 512,490" />
<path d="M 504,489 505,488 506,489 506,491 505,492 504,491" />
<path d="M 323,489 324,488 329,488 330,489 329,490 324,490" />
<path d="M 190,486 191,487 191,490 192,491 192,648 191,649 190,649 189,648 189,489 188,488" />
<path d="M 548,485 546,487 544,487 543,488 543,490 544,491 544,493 543,494 542,494 542,496 546,500 548,500 550,502 552,500 554,500 556,498 556,496 557,495 558,495 558,491 552,485" />
<path d="M 503,483 505,483 506,484 505,485 504,485 504,486 503,487 502,487 499,490 499,493 501,495 500,496 501,497 499,499 499,645 500,646 499,647 385,647 384,646 384,502 382,500 382,491 383,490 496,490 499,487 498,486 499,485 501,485" />
<path d="M 438,484 439,483 449,483 450,484 449,485 439,485" />
<path d="M 930,482 931,481 938,481 940,483 965,483 965,482 966,481 1020,481 1022,483 1039,483 1041,481 1044,481 1046,483 1044,485 925,485 924,484 925,483 930,483" />
<path d="M 725,482 726,481 729,481 730,482 730,484 729,485 728,484 728,483 726,483" />
<path d="M 322,481 329,481 330,482 330,483 331,483 331,482 332,481 334,483 341,483 343,485 345,485 346,486 346,487 345,488 344,488 343,487 331,487 327,483 325,483 325,484 324,485 321,485 321,486 317,490 316,490 316,497 317,497 320,500 331,500 333,498 333,494 330,491 331,490 334,490 336,492 357,492 359,490 360,490 361,491 359,493 359,494 365,500 373,500 377,496 377,490 376,489 376,488 375,487 375,486 376,485 379,488 379,499 374,504 369,504 365,508 365,519 366,520 367,520 368,521 368,522 365,525 365,639 367,641 366,642 366,865 367,866 365,868 365,871 367,873 366,874 366,921 367,922 365,924 365,958 367,960 367,962 369,962 370,963 370,970 372,972 374,972 375,973 375,975 374,976 372,976 372,977 373,978 372,979 371,979 370,978 370,977 368,975 368,973 366,971 366,969 365,968 366,967 366,964 347,964 345,962 344,962 343,963 342,963 341,962 340,963 339,963 338,962 337,962 337,963 336,964 334,962 327,962 326,961 326,562 327,561 328,561 328,525 327,525 325,523 325,522 326,521 326,506 324,504 320,504 314,498 314,497 313,497 312,496 312,489 313,488 314,488 314,487 315,486 316,486 317,485 318,485" />
<path d="M 192,481 198,481 200,483 240,483 242,481 268,481 270,483 309,483 310,484 309,485 193,485 191,487 190,486 190,483" />
<path d="M 732,479 733,478 736,481 736,485 737,486 737,487 740,490 853,490 854,491 854,500 856,502 856,526 855,527 854,526 854,515 852,515 852,538 851,539 850,538 850,494 797,494 795,496 795,564 796,565 849,565 851,567 851,645 853,645 854,644 854,627 855,626 856,627 856,646 855,647 738,647 736,649 735,649 734,648 734,623 735,622 735,528 734,527 734,505 735,504 735,488 734,487 734,484 732,482" />
<path d="M 373,479 374,478 375,479 375,484 374,485 373,484 373,483 372,482 373,481" />
<path d="M 917,478 917,485 918,486 919,486 920,487 920,498 914,504 908,504 908,505 907,506 906,506 906,519 908,521 909,521 910,522 906,526 906,594 907,594 908,595 908,960 909,960 910,961 910,962 911,963 911,965 912,966 912,969 915,972 917,972 918,973 917,974 917,979 918,980 918,989 919,990 921,990 922,991 925,991 925,976 924,976 924,987 923,988 922,987 922,766 921,765 922,764 923,764 924,765 924,963 925,963 925,873 926,872 927,873 927,989 928,990 982,990 983,989 983,836 982,835 929,835 927,837 927,865 926,866 925,865 925,782 926,781 927,782 927,825 929,827 929,833 982,833 983,832 983,766 982,765 930,765 928,767 927,767 927,774 926,775 925,774 925,765 927,763 1031,763 1032,762 1038,762 1040,764 1040,991 1043,991 1044,990 1043,989 1043,757 1042,756 1015,756 1014,757 1004,757 1003,756 1001,756 1000,757 923,757 922,756 922,755 923,754 1000,754 1001,753 1003,753 1004,754 1014,754 1015,753 1048,753 1049,754 1049,755 1048,756 1047,756 1046,757 1046,990 1059,990 1060,991 1078,991 1079,990 1100,990 1101,989 1101,478" />
<path d="M 908,478 908,482 909,483 914,483 915,482 915,480 911,480 909,478" />
<path d="M 898,478 896,480 896,483 902,483 906,479 906,478" />
<path d="M 868,478 868,481 881,481 882,482 882,483 883,483 884,484 884,486 885,487 884,488 879,488 878,487 874,487 873,486 873,485 870,485 869,484 869,483 863,483 863,484 862,485 861,485 861,487 859,489 859,496 863,500 873,500 875,498 875,495 873,493 873,492 872,492 871,491 871,490 870,489 871,488 872,488 874,490 876,490 877,491 877,497 879,497 880,496 880,493 881,492 898,492 902,488 903,489 903,490 904,491 903,492 903,499 904,499 905,500 906,500 908,502 911,502 913,500 915,500 916,499 916,498 917,497 918,497 918,490 917,490 916,489 916,488 915,487 914,487 913,486 913,485 905,485 903,487 898,487 897,488 890,488 889,487 891,485 893,485 894,484 894,480 891,480 888,483 886,483 883,480 883,478" />
<path d="M 556,478 556,484 558,486 558,488 559,488 560,489 560,490 672,490 673,491 673,498 675,500 675,521 676,522 676,534 675,535 675,544 676,545 676,646 675,647 560,647 559,648 558,647 558,505 559,504 559,503 560,502 560,500 559,499 558,499 558,500 557,501 556,501 553,504 550,504 547,507 547,518 548,519 548,520 549,521 549,522 546,525 546,638 548,640 547,641 547,654 548,655 546,657 546,673 548,675 547,676 547,959 551,963 551,970 553,972 558,972 558,835 557,835 556,834 556,764 557,763 559,763 560,762 590,762 591,763 603,763 604,762 611,762 612,763 613,763 614,762 623,762 624,763 627,763 628,762 672,762 673,763 675,763 676,764 676,768 675,769 675,774 676,775 676,802 678,804 678,811 676,813 676,836 677,836 678,837 678,851 676,853 676,940 678,942 678,954 676,956 676,970 678,972 679,972 680,971 682,971 683,970 683,968 684,967 685,967 685,966 684,965 683,966 682,965 682,964 687,959 687,726 688,725 688,718 687,717 687,642 688,641 688,523 686,523 685,522 686,521 688,521 688,506 686,504 679,504 678,503 678,501 676,499 676,498 677,497 680,500 682,500 684,502 688,502 691,499 692,499 693,498 693,496 694,495 690,491 691,490 693,490 696,493 700,493 701,492 717,492 718,491 718,487 713,487 712,488 709,488 708,487 709,486 709,480 690,480 688,478 685,478 685,481 694,481 696,483 698,483 700,485 702,485 704,487 703,488 701,488 700,487 692,487 690,485 688,485 686,483 684,483 676,491 676,496 675,497 674,496 674,486 679,481 681,481 681,478" />
<path d="M 731,476 729,478 727,478 726,479 725,478 713,478 713,481 719,481 721,479 722,479 723,480 723,482 725,484 720,489 720,495 722,497 722,499 723,500 725,500 727,502 728,502 730,500 732,500 733,499 734,500 734,501 731,504 729,504 727,506 724,506 723,507 723,518 724,519 724,520 725,521 725,522 722,525 722,585 723,586 723,587 722,588 722,594 723,595 723,959 724,960 726,960 727,961 727,968 729,970 729,972 734,972 734,764 735,763 739,763 740,762 742,762 743,763 752,763 753,762 761,762 762,763 763,763 764,762 777,762 778,763 784,763 785,762 810,762 811,763 841,763 842,762 848,762 849,763 851,763 852,764 852,792 851,793 851,810 852,811 852,851 851,852 851,857 852,858 852,872 851,873 851,950 850,951 849,951 848,950 848,873 849,872 849,858 848,857 848,852 849,851 849,836 848,835 795,835 795,922 797,922 798,923 796,925 796,926 795,927 795,989 796,990 815,990 816,991 826,991 827,990 849,990 850,989 850,984 852,982 852,978 850,976 850,965 851,964 852,965 852,975 854,977 854,989 855,990 856,990 857,989 857,974 859,972 862,972 863,971 863,970 862,969 864,967 868,967 869,968 868,969 868,970 867,971 866,971 866,973 865,974 862,974 859,977 859,980 861,982 861,989 860,990 859,990 859,991 862,991 863,990 865,990 866,991 876,991 877,990 900,990 901,991 904,991 905,990 914,990 915,991 916,991 916,988 914,986 865,986 863,984 864,983 871,983 872,984 906,984 907,983 911,983 912,984 913,984 915,982 915,980 913,978 914,977 915,977 915,976 914,976 913,975 913,974 890,974 889,973 890,972 906,972 908,970 906,968 907,967 909,967 909,965 908,964 903,964 903,966 902,967 901,966 901,964 899,964 897,962 894,962 894,963 893,964 890,964 888,962 887,962 887,963 886,964 876,964 875,963 876,962 876,960 878,958 878,525 873,525 873,611 871,613 871,616 873,618 873,637 871,639 871,957 873,959 873,965 874,965 875,966 875,968 874,969 871,966 871,964 866,964 864,962 864,961 865,960 869,960 869,538 870,537 871,537 871,525 869,525 866,522 869,519 869,506 867,504 862,504 857,499 857,486 861,482 861,480 860,480 859,479 859,478 735,478 733,476" />
<path d="M 369,476 368,477 368,479 369,479 370,480 365,485 362,485 360,487 356,487 355,488 350,488 349,487 349,486 352,483 354,483 354,482 355,481 359,481 359,478 349,478 349,480 348,481 346,481 343,478 139,478 138,479 137,479 136,478 135,478 133,480 133,991 136,991 137,990 148,990 149,991 183,991 184,990 188,990 189,989 189,756 187,754 188,753 197,753 198,754 293,754 294,753 313,753 314,754 314,755 313,756 313,776 312,777 311,777 310,776 310,757 309,756 294,756 293,757 198,757 197,756 192,756 191,757 191,765 192,766 192,989 193,990 196,987 197,987 198,988 198,990 247,990 248,989 248,835 198,835 198,837 197,838 196,838 195,837 195,835 196,834 195,833 195,812 196,811 197,811 198,812 198,833 247,833 248,832 248,766 247,765 198,765 198,781 197,782 196,782 195,781 195,763 196,762 197,762 198,763 272,763 273,762 279,762 280,763 296,763 297,762 305,762 307,764 307,832 306,833 305,832 305,767 303,765 252,765 252,766 251,767 251,832 252,833 304,833 305,834 304,835 254,835 251,838 251,919 253,921 253,923 251,925 251,988 252,989 252,990 304,990 305,989 305,836 306,835 307,836 307,986 308,986 309,985 309,956 310,955 313,958 312,959 312,970 313,971 311,973 311,988 313,990 315,990 316,989 316,982 317,981 318,982 318,989 319,990 338,990 339,991 345,991 346,990 374,990 375,991 377,991 378,990 378,981 377,980 377,977 378,976 378,973 377,972 377,970 378,969 378,821 377,820 377,815 378,814 378,783 377,782 377,761 378,760 378,757 377,756 377,754 378,753 392,753 393,754 413,754 414,753 447,753 448,754 465,754 466,753 480,753 481,754 483,754 484,753 501,753 502,754 502,757 501,758 499,758 497,756 484,756 483,757 481,757 480,756 466,756 465,757 448,757 447,756 414,756 413,757 393,757 392,756 384,756 383,757 382,757 380,759 380,988 381,989 381,990 382,991 384,991 384,764 386,762 404,762 405,763 436,763 437,762 451,762 452,763 453,763 454,762 456,762 457,763 488,763 489,762 498,762 499,763 499,765 501,767 500,768 500,970 501,971 499,973 499,977 500,978 500,987 499,988 499,990 500,990 501,991 505,991 506,990 552,990 552,989 553,988 553,987 552,986 553,985 554,985 555,986 556,986 556,975 555,974 506,974 506,975 505,976 504,976 504,977 551,977 552,978 551,979 503,979 500,976 500,974 502,972 504,972 505,971 505,970 506,969 506,966 505,965 511,959 511,545 512,544 512,525 510,525 509,524 509,521 511,519 511,506 505,506 500,501 500,500 501,499 503,499 504,500 512,500 515,497 516,497 516,492 515,492 514,491 515,490 517,490 519,492 540,492 540,488 533,488 532,487 532,486 533,485 533,484 534,483 542,483 542,482 543,481 549,481 549,478 536,478 534,480 530,480 529,481 527,481 527,482 526,483 525,483 525,486 526,487 525,488 522,488 521,487 516,487 514,485 514,483 507,483 506,482 507,481 524,481 525,480 524,480 523,479 523,478 508,478 506,480 500,480 498,478 385,478 383,476 381,478 376,478 374,476 372,478 371,478" />
<path d="M 912,466 912,472 911,473 912,474 1103,474 1103,470 1101,468 1100,468 1099,467 1090,467 1088,469 1086,469 1084,467 1079,467 1078,466 1072,466 1071,467 919,467 918,466" />
<path d="M 238,465 239,464 251,464 252,465 295,465 296,464 315,464 316,465 320,465 321,466 319,468 316,468 315,467 304,467 303,466 302,466 301,467 300,466 299,466 298,467 296,467 295,468 252,468 251,467 245,467 244,466 239,466" />
<path d="M 846,455 844,457 811,457 811,458 859,458 859,456 858,455" />
<path d="M 651,455 649,457 637,457 637,458 653,458 653,457" />
<path d="M 512,455 510,457 504,457 504,458 596,458 597,457 598,458 599,458 600,457 600,456 599,455 597,455 595,457 562,457 561,456 561,455 553,455 553,456 552,457 550,455 543,455 541,457 519,457 517,455" />
<path d="M 350,455 349,456 351,458 396,458 396,457 360,457 359,456 359,455" />
<path d="M 327,455 325,457 325,458 326,459 327,458 345,458 347,456 346,455" />
<path d="M 863,454 863,458 908,458 909,459 909,460 908,461 863,461 862,460 860,460 859,461 811,461 810,460 808,460 807,461 769,461 768,460 757,460 756,461 708,461 707,460 706,461 657,461 656,460 654,460 653,461 636,461 635,460 634,461 629,461 628,460 606,460 604,462 603,461 602,461 601,460 600,460 599,461 598,461 597,460 596,461 504,461 503,460 499,460 498,461 469,461 468,460 458,460 457,461 452,461 451,460 447,460 446,461 441,461 440,460 437,460 436,461 427,461 426,460 402,460 401,461 400,461 399,462 397,462 396,461 351,461 350,460 346,460 345,461 326,461 325,462 325,472 327,474 498,474 499,473 501,473 502,474 652,474 653,473 662,473 663,474 806,474 807,473 808,473 809,474 857,474 858,473 864,473 865,474 908,474 909,473 909,466 911,464 911,457 909,455 907,455 906,454 901,454 900,455 891,455 891,456 890,457 876,457 874,455 872,457 871,456 871,455 870,455 870,456 869,457 867,457 866,456 866,454" />
<path d="M 708,454 708,458 756,458 756,457 731,457 729,455 714,455 713,454" />
<path d="M 699,454 698,455 673,455 673,456 672,457 657,457 657,458 706,458 706,454" />
<path d="M 323,410 323,411 322,412 321,412 320,413 315,413 314,412 133,412 131,414 133,416 133,453 219,453 221,455 244,455 246,453 247,453 248,454 248,455 276,455 277,456 276,457 130,457 130,460 131,461 131,463 132,464 216,464 217,465 234,465 235,466 235,467 234,468 217,468 216,467 133,467 132,468 131,468 131,470 130,471 130,474 323,474 323,467 321,465 323,463 323,461 321,459 320,459 319,458 319,457 312,457 311,456 312,455 319,455 319,454 320,453 321,453 322,452 914,452 917,455 917,456 916,457 915,457 915,458 914,459 913,459 913,463 914,464 1102,464 1103,463 1103,458 1102,457 965,457 964,456 965,455 1010,455 1012,453 1067,453 1069,455 1083,455 1085,453 1101,453 1101,412 917,412 916,413 915,413 914,414 913,414 912,415 911,414 911,410" />
<path d="M 1080,397 1081,396 1083,398 1086,398 1088,396 1089,397 1089,399 1088,400 1082,400 1080,398" />
<path d="M 923,397 924,396 926,398 925,399 924,399 923,398" />
<path d="M 552,397 553,396 554,396 555,397 555,398 554,399 553,399 552,398" />
<path d="M 309,397 310,396 311,397 311,399 310,400 309,399" />
<path d="M 1056,395 1057,394 1060,394 1061,395 1061,399 1060,400 1057,400 1056,399" />
<path d="M 807,395 808,394 809,395 809,396 810,397 809,398 809,400 808,401 807,400" />
<path d="M 730,395 731,394 732,395 732,397 731,398 730,397" />
<path d="M 378,395 379,394 381,396 379,398 378,397" />
<path d="M 182,395 183,394 186,394 189,397 189,398 187,400 181,400 180,399 182,397" />
<path d="M 157,394 162,394 163,395 163,398 161,400 157,400 155,398 156,397 155,396" />
<path d="M 888,394 889,393 890,393 891,394 891,395 890,396" />
<path d="M 758,394 759,393 760,394 760,395 759,396 758,395" />
<path d="M 677,394 678,393 679,393 681,395 680,396 675,396 675,397 674,398 668,398 667,397 667,395 668,394 670,396 672,394" />
<path d="M 924,393 925,392 928,392 929,393 926,396 924,394" />
<path d="M 706,393 707,392 708,392 710,394 710,396 709,397 708,397 707,396 707,394" />
<path d="M 615,392 619,392 621,394 621,397 620,398 615,398 613,396 613,394" />
<path d="M 447,393 448,392 449,392 450,393 450,397 449,398 448,398 447,397 447,396 448,395 447,394" />
<path d="M 415,393 416,392 419,392 420,393 420,395 419,396 419,397 418,398 417,397 417,395" />
<path d="M 384,393 385,392 386,392 387,393 386,394 385,394" />
<path d="M 375,392 377,392 378,393 377,394 376,394 375,395 377,397 377,398 376,399 375,399 373,397 373,394" />
<path d="M 344,393 345,392 349,392 351,394 351,397 350,398 348,398 347,397 349,395 348,394 346,396 345,396 344,395" />
<path d="M 135,393 136,392 139,392 140,393 140,397 139,398 136,398 135,397" />
<path d="M 883,392 884,391 886,391 887,392 887,393 886,394 886,396 887,397 886,398 885,398 883,396" />
<path d="M 648,392 649,391 650,392 652,392 653,393 653,394 652,395 652,397 651,398 650,398 649,397 649,396 650,395 648,393" />
<path d="M 526,392 527,391 531,391 532,392 532,395 531,396 529,396 527,398 524,398 523,397 523,393 524,392" />
<path d="M 491,392 492,391 493,391 494,392 494,393 493,394 494,395 494,396 495,397 494,398 493,398 488,393 489,392" />
<path d="M 286,373 287,372 288,373 288,374 287,375 286,374" />
<path d="M 949,370 950,371 950,372 947,375 946,374 946,373" />
<path d="M 337,363 337,364 338,365 338,366 337,367 336,366 288,366 287,367 286,367 286,371 285,372 284,371 284,370 282,370 280,368 247,368 245,370 244,369 244,368 95,368 95,370 96,370 97,371 97,372 98,373 98,374 100,376 100,378 102,380 102,384 103,384 106,387 156,387 158,389 164,389 164,388 165,387 294,387 295,388 295,389 298,389 298,388 297,387 296,387 295,386 296,385 304,385 306,387 788,387 789,388 788,389 783,389 783,390 782,391 763,391 761,389 757,389 755,391 712,391 710,389 701,389 701,390 700,391 684,391 683,390 683,389 672,389 670,391 655,391 653,389 613,389 611,391 559,391 557,389 552,389 550,391 547,391 545,389 520,389 520,390 519,391 517,391 515,389 503,389 501,391 500,391 498,389 487,389 487,390 486,391 453,391 451,389 445,389 445,390 444,391 435,391 434,390 434,389 337,389 337,390 336,391 322,391 320,389 301,389 300,390 302,392 304,392 306,394 308,394 309,395 306,398 305,398 300,393 258,393 256,391 252,391 250,393 248,393 248,397 246,399 246,400 245,401 244,400 244,391 210,391 208,393 206,393 204,391 143,391 141,389 135,389 135,390 134,391 114,391 114,394 115,394 116,395 116,396 117,397 116,398 116,399 117,399 118,398 119,399 120,399 121,400 121,401 122,401 123,402 123,403 124,404 124,405 125,406 207,406 208,407 208,408 314,408 314,407 315,406 316,406 316,405 315,405 314,404 314,403 313,403 312,402 313,401 315,401 318,404 318,406 916,406 916,403 914,403 913,402 915,400 915,399 916,398 920,402 918,404 918,405 920,407 920,408 925,408 925,407 926,406 931,406 933,408 972,408 972,407 973,406 975,408 1021,408 1021,407 1022,406 1032,406 1034,408 1059,408 1061,406 1065,406 1067,408 1106,408 1108,406 1110,406 1110,402 1111,401 1115,401 1115,399 1117,397 1117,392 1116,391 1032,391 1030,393 1026,393 1024,391 1020,391 1018,393 1012,393 1010,391 997,391 995,393 948,393 946,391 945,391 943,393 934,393 932,391 931,391 930,390 930,389 919,389 917,391 893,391 891,389 865,389 863,391 863,395 862,396 860,396 859,395 859,391 836,391 834,389 820,389 818,391 816,389 806,389 805,388 806,387 1125,387 1127,385 1132,385 1132,382 1103,382 1103,383 1102,384 1097,384 1095,382 1018,382 1018,383 1017,384 1015,382 935,382 933,380 923,380 921,382 919,380 917,382 907,382 905,380 902,380 900,382 897,382 895,380 835,380 834,381 833,381 832,382 719,382 717,380 715,382 714,382 712,380 709,380 707,382 705,380 703,380 701,382 684,382 682,380 670,380 668,382 653,382 651,380 648,380 646,382 632,382 630,380 606,380 604,382 601,382 599,380 597,382 576,382 574,380 536,380 534,382 517,382 515,380 508,380 508,381 507,382 506,382 505,381 505,380 503,382 491,382 489,380 446,380 444,382 439,382 437,380 355,380 353,382 351,380 329,380 327,382 319,382 317,380 293,380 292,381 292,383 291,384 289,382 106,382 105,381 106,380 115,380 117,378 288,378 288,376 289,375 290,376 290,378 314,378 315,377 397,377 398,378 404,378 405,377 423,377 424,378 432,378 433,377 538,377 539,378 547,378 548,377 555,377 556,378 571,378 572,377 616,377 617,378 625,378 626,377 811,377 812,378 828,378 829,377 830,377 831,378 850,378 851,377 864,377 865,378 880,378 881,377 895,377 896,378 909,378 910,377 921,377 922,378 934,378 935,377 945,377 946,378 1128,378 1129,379 1129,380 1132,380 1134,378 1134,376 1135,375 1136,375 1136,373 1137,372 1138,372 1139,371 1139,368 973,368 972,367 964,367 963,368 956,368 954,370 951,370 949,368 945,368 943,366 895,366 893,368 881,368 880,367 879,367 878,366 714,366 712,368 703,368 701,366 615,366 613,368 600,368 598,366 589,366 587,368 569,368 567,366 563,366 561,368 559,368 558,367 556,367 555,368 529,368 527,370 526,369 526,368 519,368 518,367 517,367 516,366 467,366 465,368 433,368 431,366 403,366 402,367 401,367 400,368 381,368 379,366 350,366 348,368 340,368 339,367 341,365 343,365 344,366 345,366 347,364 347,363" />
<path d="M 128,354 128,364 129,365 276,365 278,363 284,363 284,362 285,361 289,361 291,363 296,363 298,361 306,361 308,363 326,363 326,362 327,361 351,361 353,363 702,363 702,362 703,361 708,361 710,363 879,363 881,361 895,361 896,362 896,363 952,363 953,364 954,364 955,365 963,365 964,364 972,364 973,365 1101,365 1102,364 1103,364 1103,355 1102,354 914,354 912,356 911,356 909,354" />
<path d="M 510,328 509,329 509,350 510,351 543,351 544,350 544,329 543,328" />
<path d="M 866,323 866,346 865,347 865,348 864,349 865,350 865,351 905,351 906,350 906,325 904,323" />
<path d="M 327,323 326,324 326,350 327,351 367,351 368,350 368,332 366,330 366,323" />
<path d="M 876,298 877,297 879,299 878,300 877,300 876,299" />
<path d="M 894,287 895,286 896,287 896,299 894,301 894,310 893,311 892,310 892,294 894,292" />
<path d="M 890,263 891,262 892,263 892,266 891,267 890,266" />
<path d="M 352,260 353,261 353,265 352,266 353,267 351,269 351,296 350,297 349,296 349,266 350,265 350,262" />
<path d="M 895,260 896,259 897,259 898,260 898,283 897,284 896,284 895,283" />
<path d="M 530,258 531,257 532,258 532,268 534,270 534,320 533,321 531,321 530,320" />
<path d="M 333,258 334,257 335,258 335,261 334,262 333,261" />
<path d="M 729,255 727,257 727,261 729,263 729,265 805,265 806,264 810,264 811,265 862,265 864,263 864,262 862,260 863,259 863,258 860,255" />
<path d="M 369,255 368,256 368,263 370,265 507,265 507,257 505,255" />
<path d="M 196,255 196,263 197,264 199,264 200,265 242,265 243,264 251,264 252,265 326,265 328,263 328,261 326,259 326,257 324,255" />
<path d="M 339,252 340,251 353,251 354,252 354,259 353,260 352,259 352,255 344,255 344,256 343,257 342,256 342,255 341,255 339,253" />
<path d="M 878,249 879,248 882,248 883,249 882,250 879,250" />
<path d="M 533,246 534,245 535,245 536,246 535,247 535,256 536,257 535,258 534,258 533,257" />
<path d="M 619,245 619,328 670,328 671,327 671,245" />
<path d="M 563,245 563,327 564,328 615,328 615,245" />
<path d="M 683,242 684,241 685,242 685,324 684,325 683,324" />
<path d="M 331,242 332,241 334,241 335,242 335,244 337,246 337,252 336,253 335,252 335,247 334,246 331,246 330,245 330,244 331,243" />
<path d="M 549,224 549,226 550,227 551,226 551,224" />
<path d="M 678,216 679,215 680,216 680,217 679,218 678,217" />
<path d="M 366,214 367,213 371,213 372,214 372,216 373,217 373,219 375,221 375,228 377,230 376,231 375,231 375,232 376,232 377,233 377,240 375,242 375,245 372,248 371,248 369,246 367,246 367,247 366,248 365,248 364,247 364,246 365,245 364,244 365,243 369,243 370,244 373,244 373,228 371,226 371,220 368,217 366,217 365,216 366,215" />
<path d="M 680,212 681,211 682,212 682,214 681,215 680,214" />
<path d="M 335,212 336,211 341,211 342,212 341,213 336,213" />
<path d="M 696,210 695,211 695,220 696,221 696,222 697,223 697,244 695,246 696,247 696,255 697,256 697,324 698,324 699,325 710,325 711,324 711,210" />
<path d="M 679,208 680,209 680,210 678,212 678,214 677,215 676,214 676,211" />
<path d="M 676,205 677,204 678,205 678,207 677,208 676,207" />
<path d="M 559,204 560,205 560,207 559,208 558,208 558,210 556,212 556,214 554,216 554,219 555,220 553,222 553,231 551,233 551,235 553,237 552,238 551,238 551,327 550,328 547,325 547,286 549,284 549,271 547,269 547,223 549,221 549,218 551,216 551,214 552,213 554,213 554,212 552,210 552,209 553,208 554,208 555,209 556,209 556,208 555,207 556,206 557,206" />
<path d="M 559,202 560,201 561,201 562,202 562,203 561,204 560,204 559,203" />
<path d="M 558,198 559,197 560,198 560,200 559,201 558,200" />
<path d="M 160,196 157,199 157,202 158,203 156,205 156,215 154,217 154,223 153,224 152,224 152,235 150,237 150,245 151,246 149,248 149,257 147,259 147,264 145,266 145,275 144,276 144,285 142,287 142,296 141,297 140,297 140,304 138,306 138,315 137,316 137,323 135,325 135,332 133,334 133,343 131,345 131,350 132,351 322,351 323,350 323,322 326,319 328,319 330,317 330,315 331,314 331,312 333,310 333,306 331,304 331,299 330,298 330,291 328,289 328,269 324,269 322,267 258,267 256,269 240,269 238,267 193,267 192,266 192,255 191,255 190,254 190,253 192,251 197,251 198,250 200,250 202,248 202,246 223,225 223,223 224,222 225,222 225,221 226,220 227,220 227,219 231,215 232,215 232,214 233,213 234,213 234,212 238,208 239,208 239,207 240,206 241,206 241,205 243,203 244,203 244,202 245,201 246,201 246,198 222,198 222,201 223,202 222,203 162,203 161,202 161,196" />
<path d="M 559,195 560,194 561,194 562,195 562,196 561,197 560,197 559,196" />
<path d="M 510,194 508,196 508,197 509,198 509,200 508,201 508,203 509,204 509,209 510,209 511,210 512,210 513,209 514,209 516,207 516,194" />
<path d="M 647,193 648,192 649,192 650,193 649,194 648,194" />
<path d="M 716,190 720,190 722,192 722,195 721,196 719,194 717,194 715,196 705,196 704,195 705,194 712,194" />
<path d="M 573,187 574,188 574,189 566,197 565,196 565,195" />
<path d="M 540,188 541,187 543,187 544,188 542,190 542,221 541,222 540,221 540,201 539,200 539,195 538,194 528,194 527,193 528,192 538,192 540,190" />
<path d="M 577,183 578,183 579,184 576,187 575,187 574,186" />
<path d="M 570,183 571,183 572,184 572,186 571,187 570,187 570,188 567,191 565,191 562,194 561,193 561,192" />
<path d="M 166,184 166,199 186,199 188,201 212,201 214,199 218,199 218,185 217,185 216,184 196,184 195,185 191,185 190,184" />
<path d="M 624,183 625,182 626,183 631,183 633,185 639,185 640,186 640,187 641,188 640,189 640,190 641,190 642,189 644,189 645,190 644,191 643,191 643,192 644,192 645,193 644,194 642,194 640,192 639,192 638,191 636,191 634,189 632,189 630,187 623,187 622,186 623,185 624,185" />
<path d="M 605,183 606,182 621,182 622,183 622,184 621,185 621,186 620,187 602,187 600,189 598,189 596,191 595,191 594,192 592,192 588,196 586,196 581,201 579,201 579,202 578,203 577,203 577,205 572,210 572,212 570,214 570,216 569,217 568,217 568,219 567,220 567,224 565,226 565,233 563,235 563,240 564,241 567,241 568,242 569,242 570,243 571,242 572,242 573,241 615,241 615,235 616,234 617,234 617,233 618,232 621,232 622,233 622,235 617,240 618,241 625,241 627,243 645,243 647,241 670,241 671,240 669,238 669,229 668,229 667,228 667,224 666,223 666,221 664,219 664,217 662,215 662,213 661,212 661,211 650,200 650,198 649,198 648,197 651,194 654,197 653,198 652,198 652,199 653,199 654,198 655,198 659,202 659,204 662,207 662,208 663,209 663,210 664,211 665,211 666,212 666,214 669,217 669,219 671,221 671,228 673,230 672,231 671,231 671,233 674,236 682,236 683,235 683,233 681,231 681,226 680,225 680,219 682,217 683,217 684,218 683,219 683,221 685,223 685,230 687,232 687,238 686,239 684,239 683,238 675,238 673,240 673,241 674,241 675,242 675,330 673,332 557,332 556,331 557,330 558,330 560,328 560,239 558,237 559,236 559,234 561,232 561,231 560,230 560,229 561,228 561,223 563,221 563,219 564,218 565,218 565,216 566,215 566,213 570,209 570,207 573,204 573,202 574,201 575,201 575,200 576,199 577,199 577,198 578,197 579,197 580,196 580,195 581,194 583,194 587,190 589,190 590,189 592,189 594,187 596,187 596,186 597,185 601,185 603,183" />
<path d="M 881,180 888,180 894,186 894,197 893,198 892,198 892,200 891,201 891,203 888,206 887,205 887,202 889,200 889,198 890,197 890,195 891,194 892,194 892,189 891,189 890,188 890,185 888,185 887,184 882,184 878,188 878,195 880,197 880,199 881,199 882,200 882,201 883,201 884,202 884,205 883,206 881,206 880,205 880,203 879,203 878,202 878,201 877,201 876,200 876,198 875,197 875,186" />
<path d="M 650,181 651,180 653,180 654,181 654,182 655,182 657,184 656,185 654,185" />
<path d="M 547,181 548,180 553,180 554,181 553,182 550,182 549,183 548,183 547,182" />
<path d="M 346,180 353,180 358,185 358,187 360,189 359,190 359,191 360,192 358,194 358,198 356,200 356,202 355,203 354,203 354,207 355,208 360,208 363,211 365,211 366,212 365,213 365,214 364,215 362,213 358,213 357,212 356,212 353,215 343,215 342,214 343,213 345,213 347,211 350,211 351,210 351,205 350,204 352,202 352,200 353,199 354,199 354,198 355,197 356,197 356,189 355,189 354,188 354,186 352,184 346,184 342,188 342,195 346,199 346,201 347,202 347,209 346,210 345,210 344,209 344,208 345,207 345,205 344,204 344,202 340,198 340,194 339,194 338,193 338,190 340,188 340,186 341,185 342,185 342,184" />
<path d="M 647,179 648,178 649,178 650,179 649,180 648,180" />
<path d="M 575,179 576,178 578,178 579,179 574,184 573,184 572,183 572,182 574,180 575,180" />
<path d="M 616,156 617,155 624,155 626,157 626,160 624,162 624,164 625,164 626,165 626,166 628,166 630,168 635,168 636,169 638,169 639,170 641,170 642,171 644,171 645,172 645,173 647,173 649,175 651,175 652,176 653,176 654,177 655,177 661,183 663,183 668,188 668,189 669,190 670,190 671,191 671,193 675,197 675,199 677,201 675,203 674,202 674,201 673,200 673,199 672,198 671,198 671,200 670,201 667,198 667,196 664,193 665,192 666,192 666,189 665,189 661,185 660,185 659,184 658,184 657,183 657,182 656,182 655,181 655,180 654,180 652,178 651,178 650,177 648,177 646,175 644,175 642,173 639,173 638,172 636,172 635,171 628,171 627,170 624,170 623,171 623,173 624,174 623,175 621,175 620,174 620,171 622,169 622,160 623,159 624,159 624,158 617,158 616,159 611,159 610,160 610,169 612,171 612,174 611,175 608,172 608,170 604,170 603,171 601,171 599,173 597,173 595,175 593,175 593,176 592,177 590,177 589,178 587,178 585,180 583,180 582,179 583,178 584,178 584,177 583,177 582,178 581,178 580,179 579,178 579,177 581,175 583,175 585,173 587,173 589,171 592,171 593,170 595,170 597,168 602,168 604,166 608,166 608,163 606,161 607,160 607,158 606,157 607,156" />
<path d="M 715,140 715,142 716,142 717,143 718,143 720,145 722,145 726,149 728,149 729,150 731,150 732,151 732,152 734,152 736,154 738,154 741,157 743,157 745,159 747,159 748,160 748,161 750,161 753,164 755,164 757,166 755,168 755,170 753,172 753,176 752,177 751,177 748,180 748,181 747,182 745,182 742,185 742,186 743,187 736,194 733,194 731,196 729,196 729,251 857,251 859,249 859,247 857,245 857,232 859,230 859,223 860,222 861,223 861,235 859,237 859,244 862,244 863,243 865,243 868,240 868,235 869,234 870,235 870,245 867,248 864,248 863,247 861,247 861,251 863,251 866,254 866,261 868,263 868,265 871,268 871,275 873,277 873,287 875,289 875,290 873,292 873,301 875,303 875,308 874,309 871,306 871,302 870,302 869,301 869,297 868,296 868,294 869,293 869,291 871,289 871,285 869,283 869,279 868,278 868,273 866,271 866,268 865,267 811,267 809,269 808,269 806,267 729,267 729,268 728,269 727,269 727,336 729,338 729,339 728,340 727,340 726,339 725,339 725,344 724,345 723,344 723,263 725,261 725,212 715,212 715,320 713,322 713,324 714,324 715,325 721,325 722,326 722,327 721,328 693,328 690,331 690,339 689,340 689,349 691,351 724,351 725,350 725,348 727,346 728,346 729,347 729,351 860,351 862,349 862,348 863,347 863,324 862,323 866,319 867,319 868,320 868,321 900,321 901,320 901,318 900,318 899,317 899,316 896,316 894,318 890,318 888,316 877,316 875,318 871,318 869,316 869,314 872,311 873,312 873,314 876,314 876,312 877,311 878,311 879,312 878,313 879,314 885,314 885,309 884,309 883,308 883,305 885,303 885,269 884,269 883,268 883,257 879,257 878,258 878,285 877,286 876,285 876,260 875,259 875,256 874,255 873,255 873,256 872,257 871,256 871,255 870,255 869,254 869,253 872,250 874,250 875,249 875,232 873,230 873,228 872,227 870,229 869,228 869,227 868,226 868,221 869,220 870,220 871,221 871,224 872,225 874,225 875,226 875,227 876,227 877,228 877,246 878,247 877,248 877,255 885,255 885,254 886,253 887,253 887,252 889,250 890,250 891,251 892,251 893,250 894,251 894,254 891,257 886,257 885,258 885,266 887,268 887,313 888,314 893,314 894,313 894,312 895,311 896,312 896,314 897,314 897,303 898,302 899,302 899,294 900,293 901,293 901,291 902,290 902,289 903,288 903,284 902,283 902,278 903,277 903,272 902,271 904,269 904,259 902,257 903,256 900,253 898,255 897,254 897,251 899,249 899,239 900,238 901,239 901,241 902,241 903,242 903,246 906,246 906,231 904,229 904,222 902,220 903,219 903,218 900,215 897,215 895,213 893,213 891,215 889,215 889,216 888,217 881,217 880,216 880,215 879,215 877,213 870,213 870,215 868,217 865,217 863,219 863,221 862,222 861,221 861,218 862,217 862,216 863,215 864,215 864,214 865,213 867,213 869,211 873,211 874,210 875,210 877,208 878,208 879,209 879,210 880,210 881,209 882,209 883,208 883,207 884,206 885,207 885,209 886,209 887,210 890,210 891,211 892,211 893,210 895,210 896,211 900,211 901,212 901,213 902,213 903,214 903,215 904,215 905,216 905,217 906,218 906,219 908,221 908,234 909,234 910,235 910,247 909,248 901,248 901,251 903,253 906,253 908,251 1026,251 1026,248 1025,248 1024,247 1024,246 1023,245 1022,245 1021,244 1021,243 1020,243 1019,242 1019,241 1018,241 1017,240 1017,239 1016,238 1015,238 1014,237 1014,234 1013,234 991,212 991,210 965,184 965,182 932,149 931,149 930,148 930,147 927,144 927,142 926,142 925,141 925,140" />
<path d="M 635,120 636,119 637,119 638,120 637,121 636,121" />
<path d="M 635,116 636,115 637,116 637,117 636,118 635,117" />
<path d="M 1018,97 1016,99 1016,101 1018,103 1018,116 1016,118 1016,126 1017,126 1018,127 1018,180 1067,180 1068,179 1068,97" />
<path d="M 614,95 611,98 609,98 607,100 605,100 605,101 604,102 602,102 600,104 598,104 595,107 593,107 593,108 592,109 588,109 587,110 586,110 585,111 584,111 583,112 581,112 581,113 580,114 579,114 579,115 578,116 576,116 575,117 573,117 571,119 569,119 567,121 565,121 565,122 564,123 562,123 559,126 557,126 555,128 553,128 551,130 549,130 548,131 547,131 545,133 543,133 539,137 535,137 534,138 534,139 533,140 531,140 529,142 527,142 525,144 523,144 522,145 520,145 520,146 519,147 517,147 515,149 513,149 510,152 508,152 506,154 504,154 504,155 503,156 501,156 500,157 498,157 496,159 494,159 492,161 490,161 490,162 488,164 486,164 483,167 484,168 486,168 487,169 495,169 496,170 497,170 499,168 500,168 500,167 501,166 503,166 505,164 507,164 510,161 512,161 514,159 516,159 516,158 517,157 519,157 520,156 521,156 522,155 523,155 524,154 526,154 528,152 530,152 530,151 531,150 533,150 534,149 536,149 538,147 540,147 540,146 541,145 543,145 545,143 547,143 548,142 550,142 552,140 554,140 554,139 555,138 557,138 559,136 561,136 564,133 566,133 568,131 570,131 570,130 571,129 573,129 574,128 576,128 578,126 580,126 582,124 584,124 585,123 586,123 588,121 590,121 592,119 594,119 597,116 598,116 600,114 602,114 604,112 606,112 608,110 610,110 611,109 612,109 614,107 616,107 618,105 622,109 623,109 624,110 626,110 628,112 630,112 632,114 633,114 634,115 633,116 633,117 634,118 633,119 632,119 631,118 630,118 629,117 628,117 625,114 623,114 619,110 615,110 611,114 609,114 607,116 605,116 602,119 599,119 597,121 595,121 592,124 591,124 590,125 589,125 588,126 586,126 586,127 585,128 583,128 581,130 579,130 578,131 576,131 574,133 572,133 572,134 571,135 569,135 567,137 565,137 564,138 562,138 560,140 559,140 557,142 555,142 553,144 551,144 550,145 548,145 546,147 545,147 543,149 541,149 539,151 537,151 534,154 532,154 532,155 531,156 530,156 529,157 528,157 526,159 524,159 522,161 520,161 518,163 516,163 515,164 515,165 514,166 512,166 510,168 509,168 509,169 510,170 515,170 517,168 522,168 524,166 525,166 526,167 525,168 525,169 526,170 536,170 537,171 543,171 544,170 554,170 555,171 554,172 555,173 553,175 553,177 552,178 551,177 551,174 550,173 506,173 504,171 502,171 500,173 499,173 499,174 498,175 495,172 487,172 487,178 508,178 510,180 533,180 533,179 534,178 536,180 544,180 545,181 544,182 494,182 493,183 493,185 494,186 494,187 495,188 495,190 506,190 508,192 510,192 511,191 512,191 513,192 516,192 518,190 525,190 526,191 526,192 524,194 520,194 520,195 519,196 518,196 518,199 520,201 520,206 530,206 530,205 531,204 534,204 535,205 535,210 534,211 532,211 531,210 520,210 519,211 515,211 514,212 513,212 512,213 510,213 509,214 509,268 508,269 507,269 505,267 369,267 368,268 368,273 367,274 367,275 366,276 366,278 367,279 365,281 365,301 363,303 363,313 362,314 360,314 359,313 359,308 360,307 361,307 361,301 363,299 363,275 365,273 365,256 361,252 360,252 360,253 361,254 361,256 360,257 360,262 359,263 360,264 358,266 358,292 356,294 356,298 358,300 358,301 357,302 356,302 356,310 355,311 354,310 354,289 356,287 356,263 357,262 357,257 358,256 358,254 357,253 357,252 358,251 356,249 356,231 357,230 357,229 358,228 358,226 357,225 360,222 361,223 361,228 360,229 360,230 359,231 359,248 361,250 362,250 365,253 369,253 371,251 504,251 505,250 505,249 506,248 506,208 505,207 505,206 504,205 504,196 501,196 500,195 500,194 498,194 497,193 496,193 495,192 493,192 492,191 491,191 490,190 490,184 488,182 487,182 486,181 486,180 483,177 482,177 481,176 481,172 479,170 479,168 478,167 478,165 482,161 484,161 486,159 488,159 488,158 489,157 490,157 491,156 492,156 494,154 496,154 498,152 500,152 502,150 504,150 505,149 506,149 508,147 510,147 514,143 519,143 521,141 521,140 309,140 309,141 303,147 302,147 302,148 298,152 298,153 292,159 292,160 291,161 290,161 290,162 289,163 288,163 285,166 285,167 284,168 283,168 283,169 282,170 281,170 278,173 278,174 277,175 276,175 276,176 275,177 274,177 271,180 271,181 270,182 269,182 269,183 268,184 267,184 264,187 264,188 263,189 262,189 262,190 261,191 260,191 257,194 257,196 245,208 245,210 244,211 243,211 242,212 241,212 241,214 213,242 213,244 211,246 209,246 206,249 206,251 324,251 324,228 325,227 326,227 326,219 327,218 328,218 328,216 331,213 334,213 335,214 330,219 330,221 329,222 328,222 328,237 326,239 326,245 327,246 329,246 330,247 329,248 327,248 326,249 326,250 328,252 328,253 329,253 330,254 330,267 331,267 332,268 332,270 333,271 333,273 332,274 332,279 333,280 332,281 332,293 333,294 333,299 335,301 335,313 336,314 340,314 340,258 341,257 342,258 342,263 344,265 344,266 342,268 342,313 343,314 358,314 360,316 358,318 347,318 345,316 334,316 332,318 332,321 364,321 365,320 364,319 364,318 363,317 363,315 364,314 365,314 367,316 366,317 367,318 367,319 369,319 370,320 370,321 371,322 370,323 370,350 371,351 505,351 507,349 507,344 505,342 506,341 506,339 505,338 507,336 507,330 505,328 506,327 505,326 506,325 509,325 510,324 511,324 511,322 509,320 509,286 510,285 511,286 512,286 513,287 513,324 514,325 527,325 528,324 528,322 529,321 530,322 530,324 531,324 532,325 542,325 543,324 544,324 544,319 545,318 546,319 546,335 548,337 547,338 547,349 548,350 548,351 684,351 687,348 687,327 688,326 692,326 692,266 694,264 694,256 693,255 693,246 692,245 692,195 690,193 690,186 691,185 692,186 692,188 694,190 694,192 696,192 697,193 696,194 694,194 694,197 696,199 695,200 695,206 696,207 696,208 698,208 699,207 699,205 700,204 701,205 701,206 705,206 707,204 713,204 713,200 714,199 715,199 717,201 716,202 716,203 717,204 715,206 715,209 725,209 725,193 726,192 728,192 730,190 737,190 737,188 739,186 739,182 689,182 687,184 683,184 680,181 680,174 678,172 679,171 702,171 703,170 707,170 707,168 700,168 697,165 696,165 695,164 694,164 693,163 691,163 690,162 690,161 688,161 686,159 682,159 680,157 679,157 678,156 676,156 672,152 670,152 669,151 667,151 665,149 663,149 662,148 662,147 660,147 658,145 656,145 655,144 653,144 651,142 649,142 648,141 648,140 646,140 644,138 642,138 641,137 639,137 638,136 638,135 637,135 636,134 636,133 634,133 632,131 630,131 629,130 625,130 624,129 624,128 621,128 620,127 620,126 613,126 611,128 609,128 607,130 605,130 604,131 602,131 600,133 599,133 595,137 593,137 592,138 588,138 588,139 587,140 586,140 586,141 585,142 581,142 578,145 576,145 574,147 572,147 572,148 571,149 569,149 567,151 565,151 564,152 562,152 560,154 558,154 558,155 557,156 555,156 554,157 552,157 548,161 544,161 544,162 543,163 541,163 540,164 536,164 535,165 534,165 533,166 528,166 527,165 528,164 531,164 532,163 533,163 534,162 535,162 536,161 538,161 540,159 543,159 545,157 547,157 550,154 552,154 554,152 556,152 558,150 559,150 560,149 562,149 564,147 568,147 568,146 569,145 570,145 570,144 571,143 573,143 574,142 578,142 580,140 582,140 582,139 583,138 584,138 584,137 585,136 587,136 588,135 590,135 592,133 594,133 594,132 595,131 597,131 599,129 601,129 602,128 604,128 606,126 608,126 610,124 611,124 612,123 614,123 618,119 622,123 623,123 624,124 626,124 628,126 630,126 632,128 634,128 635,129 637,129 638,130 638,131 640,131 644,135 646,135 647,136 649,136 651,138 653,138 654,139 654,140 656,140 658,142 660,142 663,145 665,145 667,147 668,147 670,149 672,149 673,150 677,150 678,151 678,152 679,152 681,154 684,154 687,157 689,157 691,159 694,159 696,161 698,161 699,162 700,162 701,163 702,163 703,164 705,164 706,165 706,166 708,166 710,168 714,168 714,167 715,166 716,166 717,167 717,168 719,168 721,170 727,170 728,169 728,168 726,168 724,166 722,166 720,164 717,164 716,163 714,163 712,161 710,161 709,160 709,159 707,159 704,156 702,156 700,154 698,154 696,152 694,152 693,151 692,151 690,149 688,149 686,147 684,147 682,145 681,145 680,144 678,144 676,142 675,142 674,141 674,140 672,140 670,138 668,138 667,137 666,137 664,135 662,135 660,133 658,133 656,131 654,131 653,130 652,130 650,128 649,128 648,127 648,126 646,126 645,125 644,125 643,124 642,124 641,123 639,123 638,122 641,119 642,119 644,121 648,121 650,123 651,123 654,126 656,126 658,128 660,128 661,129 663,129 665,131 667,131 668,132 668,133 670,135 672,135 673,136 675,136 677,138 679,138 680,139 680,140 682,140 684,142 686,142 687,143 689,143 691,145 693,145 694,146 694,147 696,147 698,149 700,149 701,150 703,150 705,152 707,152 708,153 708,154 710,154 713,157 717,157 718,158 718,159 721,159 722,160 722,161 724,161 727,164 729,164 731,166 733,166 735,168 745,168 746,169 744,171 743,171 743,172 742,173 684,173 683,174 683,177 684,178 710,178 712,180 731,180 733,178 746,178 747,177 747,176 748,175 748,172 747,171 749,169 749,165 748,164 747,164 746,163 744,163 742,161 740,161 738,159 736,159 734,157 733,157 732,156 731,156 730,155 730,154 728,154 726,152 724,152 723,151 721,151 717,147 714,147 711,144 709,144 707,142 705,142 704,141 704,140 702,140 700,138 698,138 697,137 695,137 693,135 691,135 690,134 690,133 688,133 686,131 684,131 681,128 677,128 673,124 672,124 671,123 669,123 667,121 665,121 661,117 660,117 659,116 657,116 655,114 653,114 651,112 649,112 647,110 646,110 645,109 643,109 641,107 639,107 636,104 634,104 632,102 630,102 629,101 629,100 627,100 625,98 623,98 622,97 620,97 618,95" />
<path d="M 1016,83 1016,93 1029,93 1031,95 1053,95 1055,93 1067,93 1068,92 1068,85 1067,84 1065,84 1064,83" />
<path d="M 166,83 166,94 167,95 179,95 180,96 179,97 166,97 166,179 167,180 204,180 206,182 213,182 214,181 215,181 217,179 217,86 216,85 216,84 215,83 196,83 195,84 186,84 185,83" />
<path d="M 1011,74 1011,79 1073,79 1073,78 1074,77 1075,77 1075,74" />
<path d="M 163,72 163,73 162,74 160,74 159,75 159,78 162,81 163,81 165,79 223,79 223,74 197,74 195,72 193,74 191,74 190,73 190,72 174,72 172,74 169,74 167,72 165,74" />
<path d="M 1032,53 1032,63 1033,64 1033,68 1034,68 1035,69 1050,69 1051,68 1054,68 1054,53" />
<path d="M 190,49 191,48 192,48 193,49 210,49 212,51 211,52 212,53 208,57 208,62 207,63 205,63 204,62 204,59 205,58 206,58 206,55 205,55 204,54 204,53 181,53 180,54 180,57 182,59 182,63 184,65 184,68 185,69 197,69 198,68 205,68 206,69 204,71 198,71 198,72 207,72 209,70 209,69 208,68 208,64 209,63 210,64 210,65 215,70 228,70 229,71 229,76 227,78 227,82 226,83 224,83 220,87 220,92 222,94 222,99 220,101 220,160 222,162 222,189 220,191 220,193 221,194 226,194 228,192 233,192 235,194 251,194 251,193 252,192 253,192 253,191 254,190 255,190 258,187 258,186 259,185 260,185 260,184 261,183 262,183 265,180 265,179 266,178 267,178 270,175 270,174 271,173 272,173 272,172 273,171 274,171 277,168 277,167 278,166 279,166 279,165 280,164 281,164 281,162 295,148 295,146 306,135 460,135 461,136 472,136 473,135 533,135 533,134 534,133 536,133 538,131 540,131 543,128 545,128 547,126 549,126 549,125 550,124 552,124 553,123 555,123 557,121 559,121 561,119 563,119 563,118 564,117 565,117 566,116 567,116 569,114 571,114 573,112 577,112 577,111 578,110 580,110 581,109 582,109 583,108 584,108 587,105 589,105 589,104 590,103 592,103 593,102 595,102 597,100 599,100 603,96 605,96 606,95 607,95 609,93 611,93 615,89 619,89 621,91 623,91 625,93 627,93 628,94 628,95 629,96 631,96 633,98 635,98 637,100 639,100 642,103 644,103 645,104 645,105 647,105 649,107 651,107 652,108 653,108 654,109 655,109 656,110 658,110 659,111 659,112 661,112 664,115 665,115 666,116 667,116 668,117 670,117 671,118 671,119 674,119 675,120 675,121 677,121 680,124 682,124 684,126 686,126 688,128 689,128 690,129 692,129 694,131 696,131 698,133 701,133 703,135 928,135 931,138 931,140 936,145 937,145 938,146 938,147 951,160 951,161 952,162 952,163 953,164 954,164 955,165 955,166 956,166 957,167 957,168 958,168 959,169 959,170 960,171 961,171 962,172 962,173 963,173 964,174 964,175 967,178 968,178 969,179 969,180 970,180 971,181 971,182 972,183 973,183 974,184 974,185 975,185 976,186 976,187 977,187 978,188 978,189 979,190 980,190 981,191 981,192 1010,192 1011,193 1011,194 1013,196 1011,198 986,198 997,209 997,211 1018,232 1018,234 1023,239 1024,239 1025,240 1025,241 1030,246 1031,246 1032,247 1032,248 1038,254 1037,255 907,255 906,256 906,263 908,265 963,265 964,264 975,264 976,265 1035,265 1037,263 1037,259 1038,258 1039,258 1042,261 1040,263 1040,268 1039,269 1032,269 1031,268 1031,267 978,267 978,268 977,269 963,269 961,267 909,267 906,270 906,277 905,278 905,283 906,284 906,292 905,293 905,295 903,297 903,301 902,302 901,302 901,314 902,314 903,315 903,316 904,316 905,317 905,318 906,319 908,319 910,321 910,351 1100,351 1101,350 1101,339 1099,337 1099,328 1097,326 1098,325 1098,321 1097,320 1097,319 1096,318 1096,310 1094,308 1094,302 1093,302 1092,301 1092,292 1090,290 1091,289 1091,281 1090,280 1090,279 1089,278 1089,271 1088,271 1087,270 1087,260 1086,260 1085,259 1085,250 1084,249 1084,240 1082,238 1082,229 1081,229 1080,228 1080,219 1078,217 1078,208 1077,207 1077,200 1073,196 1072,196 1070,198 1069,198 1068,197 1068,184 1019,184 1018,185 1018,194 1016,196 1016,199 1067,199 1070,202 1069,203 1015,203 1014,202 1014,186 1012,184 1012,176 1014,174 1014,97 1012,95 1012,83 1007,83 1005,81 1005,73 1006,72 1007,72 1007,71 1008,70 1019,70 1022,67 1024,67 1025,68 1025,70 1028,70 1028,69 1026,67 1026,66 1027,65 1028,65 1028,55 1027,55 1026,54 1026,53 1024,53 1023,52 1026,49 1060,49 1061,50 1061,54 1060,55 1058,55 1058,68 1059,69 1061,69 1062,68 1063,68 1063,66 1064,65 1065,65 1066,66 1066,69 1067,70 1077,70 1079,72 1079,81 1077,83 1075,83 1074,84 1072,84 1072,94 1073,95 1073,96 1072,97 1072,194 1074,194 1076,192 1079,192 1080,193 1080,198 1082,200 1082,209 1084,211 1084,220 1085,220 1086,221 1086,229 1087,230 1087,240 1089,242 1089,251 1091,253 1091,262 1093,264 1092,265 1092,269 1093,270 1093,271 1094,272 1094,280 1096,282 1096,289 1098,291 1098,300 1100,302 1099,303 1099,309 1100,310 1100,311 1101,312 1101,319 1102,319 1103,320 1103,331 1105,333 1105,344 1106,344 1107,345 1106,346 1106,349 1107,350 1107,351 1108,352 1108,364 1109,364 1110,365 1140,365 1141,364 1143,364 1145,366 1145,369 1144,370 1143,369 1143,367 1141,367 1141,369 1143,371 1141,373 1140,373 1140,375 1138,377 1138,381 1136,383 1136,385 1135,386 1134,386 1134,388 1133,389 1123,389 1122,390 1122,393 1120,395 1120,400 1119,401 1118,401 1116,403 1114,403 1112,405 1112,409 1111,410 1110,410 1110,411 1109,412 1107,412 1106,413 1106,414 1107,415 1105,417 1105,424 1107,426 1106,427 1106,440 1107,441 1105,443 1105,448 1107,450 1106,451 1106,454 1107,455 1109,455 1110,456 1108,458 1108,461 1107,462 1107,463 1106,464 1106,475 1107,476 1105,478 1105,516 1107,518 1106,519 1106,526 1107,527 1105,529 1105,598 1107,600 1105,602 1105,990 1116,990 1117,991 1117,994 1115,996 1115,1043 1116,1044 1142,1044 1143,1045 1144,1045 1145,1046 1142,1049 1140,1049 1140,1050 1139,1051 1140,1052 1140,1053 1139,1054 1138,1054 1138,1055 1136,1057 1136,1060 1133,1063 1129,1063 1129,1064 1128,1065 1127,1065 1125,1063 927,1063 927,1064 926,1065 917,1065 917,1067 913,1071 913,1097 916,1100 916,1101 915,1102 915,1104 914,1105 913,1105 913,1120 1056,1120 1057,1121 1056,1122 1030,1122 1030,1123 1031,1124 1034,1124 1035,1125 1034,1126 991,1126 990,1125 991,1124 1004,1124 1005,1123 1005,1122 978,1122 978,1124 985,1124 986,1125 985,1126 920,1126 918,1124 917,1124 915,1126 915,1132 914,1133 913,1133 910,1136 910,1140 909,1141 908,1140 908,1135 907,1134 877,1134 877,1143 900,1143 901,1144 903,1144 904,1143 905,1143 907,1141 908,1142 908,1144 909,1145 911,1145 912,1146 911,1147 911,1350 912,1351 912,1352 913,1353 913,1365 916,1368 917,1367 918,1368 918,1369 917,1370 917,1404 918,1405 918,1407 919,1407 920,1408 921,1408 922,1409 923,1409 924,1408 926,1408 927,1409 932,1409 933,1408 1029,1408 1030,1409 1047,1409 1048,1408 1064,1408 1065,1409 1068,1409 1068,1405 1070,1403 1070,1370 1069,1370 1068,1369 1070,1367 1071,1368 1072,1368 1075,1365 1075,1355 1076,1354 1077,1355 1078,1355 1078,1352 1077,1351 1077,1349 1078,1348 1078,1134 1077,1134 1076,1133 1075,1133 1073,1131 1073,1127 1075,1125 1112,1125 1113,1126 1112,1127 1078,1127 1075,1130 1076,1131 1117,1131 1118,1130 1118,1129 1115,1126 1115,1124 1111,1124 1110,1123 1113,1120 1117,1120 1117,1102 1116,1101 1102,1101 1101,1100 1102,1099 1108,1099 1109,1098 1110,1099 1115,1099 1115,1073 1117,1071 1117,1067 1119,1065 1121,1065 1122,1066 1122,1067 1120,1069 1120,1072 1122,1074 1120,1076 1120,1098 1121,1099 1124,1099 1125,1100 1125,1101 1123,1103 1122,1103 1122,1128 1120,1130 1120,1132 1119,1133 1117,1133 1117,1245 1118,1245 1119,1244 1121,1244 1123,1242 1124,1242 1126,1244 1126,1295 1125,1296 1120,1296 1119,1297 1119,1298 1117,1300 1117,1346 1119,1348 1119,1366 1125,1366 1126,1367 1126,1382 1124,1384 1124,1390 1126,1392 1126,1396 1125,1397 1124,1397 1124,1406 1125,1406 1126,1407 1126,1412 1125,1413 1074,1413 1072,1411 1036,1411 1034,1413 923,1413 921,1411 919,1411 917,1413 865,1413 863,1411 862,1411 860,1413 858,1411 853,1411 851,1413 846,1413 844,1411 813,1411 811,1413 780,1413 778,1411 761,1411 759,1413 735,1413 733,1411 705,1411 703,1413 668,1413 667,1412 667,1411 660,1411 658,1413 615,1413 613,1411 475,1411 473,1413 449,1413 447,1411 432,1411 430,1413 406,1413 404,1411 400,1411 398,1413 395,1413 393,1411 386,1411 386,1412 385,1413 305,1413 303,1411 301,1413 277,1413 275,1411 273,1411 271,1413 209,1413 207,1411 174,1411 172,1413 155,1413 153,1411 150,1411 148,1413 146,1411 144,1413 110,1413 108,1411 109,1410 109,1369 108,1368 110,1366 115,1366 115,1365 116,1364 116,1357 115,1356 115,1355 116,1354 117,1354 118,1355 120,1355 121,1356 121,1358 119,1360 119,1365 120,1366 129,1366 130,1367 152,1367 153,1366 155,1366 155,1365 156,1364 156,1359 155,1358 155,1357 154,1356 154,1354 153,1354 152,1353 152,1352 127,1352 125,1354 120,1354 119,1353 119,1352 118,1352 117,1351 117,1148 119,1146 119,1135 118,1134 116,1134 115,1133 113,1133 112,1132 112,1128 114,1126 114,1125 112,1123 112,1103 111,1103 109,1101 109,1100 110,1099 112,1099 112,1078 114,1076 114,1074 112,1072 112,1070 111,1070 110,1069 110,1067 108,1065 108,1063 99,1063 96,1060 96,1054 95,1053 95,1052 93,1050 93,1049 92,1049 91,1048 91,1047 94,1044 118,1044 119,1043 119,995 118,995 117,994 117,991 118,990 127,990 128,989 128,479 126,477 126,461 124,459 124,456 125,455 126,455 126,454 127,453 128,453 128,413 127,412 124,412 122,410 122,408 121,407 121,406 119,404 119,403 118,403 116,401 115,401 114,400 113,400 112,399 112,395 106,389 103,389 101,387 99,387 98,386 98,382 97,382 96,381 96,379 95,378 95,376 93,374 93,372 92,372 91,371 91,370 90,370 89,369 89,366 90,365 123,365 124,364 124,350 125,349 127,349 128,348 128,341 129,340 129,331 131,329 131,320 132,319 133,319 133,310 135,308 135,299 136,298 136,291 138,289 138,280 139,279 140,279 140,270 142,268 142,257 143,256 143,249 144,248 145,248 145,240 146,239 147,239 147,230 148,229 148,228 149,227 149,221 148,220 150,218 150,209 152,207 152,200 153,199 154,199 154,193 155,192 158,192 160,194 161,193 161,85 159,83 157,83 155,81 156,80 156,73 155,72 157,70 166,70 169,67 172,67 173,68 172,69 170,69 170,70 173,70 174,69 175,70 176,70 178,68 178,57 175,54 175,50 176,49 186,49 187,50 187,51 190,51" />
</g>
</svg>