<svg xmlns="http://www.w3.org/2000/svg" viewBox="0 0 700 820" fill="none" stroke="currentColor" stroke-width="1.5" stroke-linecap="round" stroke-linejoin="round">

  <!-- ===================== GROUND FLOOR ===================== -->
  <rect x="80" y="590" width="540" height="220"/>

  <!-- Main shop front window -->
  <rect x="200" y="615" width="300" height="170" rx="2"/>
  <!-- Mullions -->
  <line x1="275" y1="615" x2="275" y2="785"/>
  <line x1="350" y1="615" x2="350" y2="785"/>
  <line x1="425" y1="615" x2="425" y2="785"/>
  <!-- Transom -->
  <line x1="200" y1="660" x2="500" y2="660"/>

  <!-- Shop front frame -->
  <line x1="190" y1="608" x2="510" y2="608"/>
  <rect x="190" y="608" width="320" height="7"/>

  <!-- Left entrance -->
  <rect x="90" y="625" width="90" height="185" rx="2"/>
  <rect x="98" y="632" width="32" height="115" rx="2"/>
  <rect x="138" y="632" width="32" height="115" rx="2"/>
  <line x1="98" y1="750" x2="170" y2="750"/>
  <rect x="98" y="755" width="72" height="50" rx="2"/>
  <line x1="134" y1="755" x2="134" y2="805"/>

  <!-- Right entrance -->
  <rect x="520" y="625" width="90" height="185" rx="2"/>
  <rect x="528" y="632" width="32" height="115" rx="2"/>
  <rect x="568" y="632" width="32" height="115" rx="2"/>
  <line x1="528" y1="750" x2="600" y2="750"/>
  <rect x="528" y="755" width="72" height="50" rx="2"/>
  <line x1="564" y1="755" x2="564" y2="805"/>

  <!-- Ground floor pilasters -->
  <rect x="180" y="598" width="14" height="212"/>
  <rect x="506" y="598" width="14" height="212"/>

  <!-- Corner pilasters -->
  <rect x="80" y="598" width="8" height="212"/>
  <rect x="612" y="598" width="8" height="212"/>

  <!-- Ground floor cornice / fascia -->
  <line x1="70" y1="590" x2="630" y2="590"/>
  <line x1="72" y1="585" x2="628" y2="585"/>
  <line x1="74" y1="580" x2="626" y2="580"/>

  <!-- ===================== BALUSTRADE ===================== -->
  <rect x="80" y="560" width="540" height="20"/>
  <line x1="80" y1="570" x2="620" y2="570"/>
  <!-- Balusters (evenly spaced) -->
  <g stroke-width="1.2">
    <line x1="95" y1="561" x2="95" y2="579"/><line x1="108" y1="561" x2="108" y2="579"/>
    <line x1="121" y1="561" x2="121" y2="579"/><line x1="134" y1="561" x2="134" y2="579"/>
    <line x1="147" y1="561" x2="147" y2="579"/><line x1="160" y1="561" x2="160" y2="579"/>
    <line x1="173" y1="561" x2="173" y2="579"/>
    <!-- right side balusters -->
    <line x1="520" y1="561" x2="520" y2="579"/><line x1="533" y1="561" x2="533" y2="579"/>
    <line x1="546" y1="561" x2="546" y2="579"/><line x1="559" y1="561" x2="559" y2="579"/>
    <line x1="572" y1="561" x2="572" y2="579"/><line x1="585" y1="561" x2="585" y2="579"/>
    <line x1="598" y1="561" x2="598" y2="579"/>
  </g>
  <!-- Balustrade posts -->
  <rect x="84" y="557" width="8" height="26" rx="1"/>
  <rect x="177" y="557" width="8" height="26" rx="1"/>
  <rect x="515" y="557" width="8" height="26" rx="1"/>
  <rect x="608" y="557" width="8" height="26" rx="1"/>

  <!-- ===================== FIRST FLOOR (PIANO NOBILE) ===================== -->
  <rect x="80" y="320" width="540" height="240"/>

  <!-- Four tall Ionic columns -->
  <g stroke-width="1.5">
    <rect x="247" y="338" width="16" height="210" rx="4"/>
    <rect x="303" y="338" width="16" height="210" rx="4"/>
    <rect x="381" y="338" width="16" height="210" rx="4"/>
    <rect x="437" y="338" width="16" height="210" rx="4"/>
  </g>
  <!-- Column capitals (wider) -->
  <rect x="241" y="330" width="28" height="12" rx="2"/>
  <rect x="297" y="330" width="28" height="12" rx="2"/>
  <rect x="375" y="330" width="28" height="12" rx="2"/>
  <rect x="431" y="330" width="28" height="12" rx="2"/>
  <!-- Capital volutes -->
  <g stroke-width="1">
    <path d="M243,336 Q241,330 247,330" fill="none"/>
    <path d="M267,336 Q269,330 263,330" fill="none"/>
    <path d="M299,336 Q297,330 303,330" fill="none"/>
    <path d="M323,336 Q325,330 319,330" fill="none"/>
    <path d="M377,336 Q375,330 381,330" fill="none"/>
    <path d="M401,336 Q403,330 397,330" fill="none"/>
    <path d="M433,336 Q431,330 437,330" fill="none"/>
    <path d="M457,336 Q459,330 453,330" fill="none"/>
  </g>
  <!-- Column bases -->
  <rect x="243" y="546" width="24" height="10" rx="2"/>
  <rect x="299" y="546" width="24" height="10" rx="2"/>
  <rect x="377" y="546" width="24" height="10" rx="2"/>
  <rect x="433" y="546" width="24" height="10" rx="2"/>

  <!-- First floor left windows (tall) -->
  <rect x="100" y="365" width="120" height="170" rx="2"/>
  <line x1="160" y1="365" x2="160" y2="535"/>
  <line x1="100" y1="445" x2="220" y2="445"/>
  <!-- Window sill -->
  <line x1="95" y1="538" x2="225" y2="538"/>

  <!-- First floor right windows (tall) -->
  <rect x="480" y="365" width="120" height="170" rx="2"/>
  <line x1="540" y1="365" x2="540" y2="535"/>
  <line x1="480" y1="445" x2="600" y2="445"/>
  <!-- Window sill -->
  <line x1="475" y1="538" x2="605" y2="538"/>

  <!-- Center decorative panels between columns -->
  <rect x="272" y="420" width="56" height="35" rx="6"/>
  <ellipse cx="300" cy="437" rx="16" ry="10"/>
  <rect x="372" y="420" width="56" height="35" rx="6"/>
  <ellipse cx="400" cy="437" rx="16" ry="10"/>
  <!-- Small decorative panel above -->
  <rect x="280" y="390" width="40" height="18" rx="3"/>
  <rect x="380" y="390" width="40" height="18" rx="3"/>

  <!-- First floor main cornice (elaborate) -->
  <line x1="60" y1="320" x2="640" y2="320"/>
  <line x1="63" y1="315" x2="637" y2="315"/>
  <line x1="66" y1="310" x2="634" y2="310"/>
  <line x1="68" y1="305" x2="632" y2="305"/>
  <!-- Dentil molding -->
  <g stroke-width="1">
    <line x1="75" y1="312" x2="75" y2="318"/><line x1="87" y1="312" x2="87" y2="318"/>
    <line x1="99" y1="312" x2="99" y2="318"/><line x1="111" y1="312" x2="111" y2="318"/>
    <line x1="123" y1="312" x2="123" y2="318"/><line x1="135" y1="312" x2="135" y2="318"/>
    <line x1="147" y1="312" x2="147" y2="318"/><line x1="159" y1="312" x2="159" y2="318"/>
    <line x1="171" y1="312" x2="171" y2="318"/><line x1="183" y1="312" x2="183" y2="318"/>
    <line x1="517" y1="312" x2="517" y2="318"/><line x1="529" y1="312" x2="529" y2="318"/>
    <line x1="541" y1="312" x2="541" y2="318"/><line x1="553" y1="312" x2="553" y2="318"/>
    <line x1="565" y1="312" x2="565" y2="318"/><line x1="577" y1="312" x2="577" y2="318"/>
    <line x1="589" y1="312" x2="589" y2="318"/><line x1="601" y1="312" x2="601" y2="318"/>
    <line x1="613" y1="312" x2="613" y2="318"/><line x1="625" y1="312" x2="625" y2="318"/>
  </g>

  <!-- ===================== SECOND FLOOR ===================== -->
  <rect x="80" y="170" width="540" height="135"/>

  <!-- Four windows with ornamental headers -->
  <!-- Window 1 -->
  <rect x="100" y="198" width="100" height="90" rx="2"/>
  <line x1="150" y1="198" x2="150" y2="288"/><line x1="100" y1="248" x2="200" y2="248"/>
  <line x1="95" y1="195" x2="205" y2="195"/><line x1="93" y1="190" x2="207" y2="190"/>
  <!-- Window 2 -->
  <rect x="225" y="198" width="100" height="90" rx="2"/>
  <line x1="275" y1="198" x2="275" y2="288"/><line x1="225" y1="248" x2="325" y2="248"/>
  <line x1="220" y1="195" x2="330" y2="195"/><line x1="218" y1="190" x2="332" y2="190"/>
  <!-- Window 3 -->
  <rect x="375" y="198" width="100" height="90" rx="2"/>
  <line x1="425" y1="198" x2="425" y2="288"/><line x1="375" y1="248" x2="475" y2="248"/>
  <line x1="370" y1="195" x2="480" y2="195"/><line x1="368" y1="190" x2="482" y2="190"/>
  <!-- Window 4 -->
  <rect x="500" y="198" width="100" height="90" rx="2"/>
  <line x1="550" y1="198" x2="550" y2="288"/><line x1="500" y1="248" x2="600" y2="248"/>
  <line x1="495" y1="195" x2="605" y2="195"/><line x1="493" y1="190" x2="607" y2="190"/>

  <!-- ===================== MANSARD ROOF ===================== -->
  <polygon points="80,170 80,110 145,58 555,58 620,110 620,170"/>
  <!-- Inner roof line -->
  <line x1="85" y1="165" x2="615" y2="165"/>
  <line x1="88" y1="158" x2="612" y2="158"/>
  <!-- Slate pattern lines on roof slope -->
  <g stroke-width="0.8" opacity="0.5">
    <line x1="90" y1="145" x2="610" y2="145"/>
    <line x1="93" y1="132" x2="607" y2="132"/>
    <line x1="98" y1="119" x2="602" y2="119"/>
    <line x1="108" y1="106" x2="592" y2="106"/>
    <line x1="120" y1="93" x2="580" y2="93"/>
    <line x1="133" y1="80" x2="567" y2="80"/>
  </g>

  <!-- Central dormer with arched window -->
  <rect x="280" y="78" width="140" height="80" rx="2"/>
  <path d="M280,78 Q350,22 420,78" fill="none" stroke-width="1.8"/>
  <!-- Dormer mullions -->
  <line x1="350" y1="35" x2="350" y2="158"/>
  <line x1="315" y1="78" x2="315" y2="158"/>
  <line x1="385" y1="78" x2="385" y2="158"/>
  <!-- Dormer keystone -->
  <rect x="345" y="25" width="10" height="12" rx="2"/>

  <!-- Pediment above dormer -->
  <polygon points="260,80 350,38 440,80" fill="none" stroke-width="1.8"/>
  <line x1="255" y1="84" x2="445" y2="84"/>
  <line x1="258" y1="88" x2="442" y2="88"/>

  <!-- Small columns flanking dormer -->
  <rect x="268" y="88" width="8" height="70" rx="2"/>
  <rect x="424" y="88" width="8" height="70" rx="2"/>
  <!-- Dormer column caps -->
  <rect x="265" y="85" width="14" height="6" rx="1"/>
  <rect x="421" y="85" width="14" height="6" rx="1"/>

  <!-- ===================== STATUES ===================== -->
  <!-- Left statue on pedestal -->
  <g transform="translate(200, 50)">
    <rect x="-8" y="2" width="16" height="8" rx="1"/>
    <ellipse cx="0" cy="-8" rx="5" ry="6.5"/>
    <path d="M0,-1.5 L0,2" stroke-width="1.5"/>
    <path d="M-4,2 C-6,-4 -8,-2 -8,0" stroke-width="1"/>
    <path d="M4,2 C6,-4 8,-2 8,0" stroke-width="1"/>
    <path d="M-3,2 L-5,10 L-3,10" stroke-width="1"/>
    <path d="M3,2 L5,10 L3,10" stroke-width="1"/>
  </g>
  <!-- Right statue on pedestal -->
  <g transform="translate(500, 50)">
    <rect x="-8" y="2" width="16" height="8" rx="1"/>
    <ellipse cx="0" cy="-8" rx="5" ry="6.5"/>
    <path d="M0,-1.5 L0,2" stroke-width="1.5"/>
    <path d="M-4,2 C-6,-4 -8,-2 -8,0" stroke-width="1"/>
    <path d="M4,2 C6,-4 8,-2 8,0" stroke-width="1"/>
    <path d="M-3,2 L-5,10 L-3,10" stroke-width="1"/>
    <path d="M3,2 L5,10 L3,10" stroke-width="1"/>
  </g>

  <!-- ===================== CHIMNEYS ===================== -->
  <!-- Left chimney -->
  <rect x="130" y="18" width="28" height="42" rx="2"/>
  <line x1="126" y1="18" x2="162" y2="18"/>
  <line x1="128" y1="14" x2="160" y2="14"/>
  <rect x="137" y="8" width="14" height="10" rx="1"/>

  <!-- Right chimney -->
  <rect x="542" y="18" width="28" height="42" rx="2"/>
  <line x1="538" y1="18" x2="574" y2="18"/>
  <line x1="540" y1="14" x2="572" y2="14"/>
  <rect x="549" y="8" width="14" height="10" rx="1"/>

</svg>
