<svg preserveAspectRatio="xMidYMid meet" width="100%" height="100%" overflow="visible" style="display: block;" viewBox="0 0 925 1108.31" fill="none" xmlns="http://www.w3.org/2000/svg">
<path id="Stars" d="M277.508 923.309C277.692 974.332 319.036 1015.64 370.009 1015.64C318.921 1015.64 277.508 1057.13 277.508 1108.31C277.323 1057.29 235.98 1015.98 185.007 1015.98C236.093 1015.98 277.508 974.489 277.508 923.309ZM462.5 923.309C462.684 974.332 504.028 1015.64 555.001 1015.64C503.913 1015.64 462.5 1057.13 462.5 1108.31C462.315 1057.29 420.973 1015.98 370 1015.98C421.086 1015.98 462.5 974.489 462.5 923.309ZM92.501 738.308C92.6853 789.331 134.028 830.637 185.001 830.637C133.914 830.637 92.501 872.128 92.501 923.309C92.316 872.285 50.9729 830.979 0 830.979C51.0865 830.979 92.5008 789.488 92.501 738.308ZM462.5 738.308C462.684 789.331 504.028 830.637 555.001 830.637C503.913 830.637 462.5 872.128 462.5 923.309C462.315 872.285 420.973 830.98 370 830.979C421.086 830.979 462.5 789.488 462.5 738.308ZM647.508 738.308C647.692 789.331 689.035 830.637 740.008 830.637C688.92 830.637 647.508 872.128 647.508 923.309C647.323 872.285 605.98 830.98 555.007 830.979C606.093 830.979 647.508 789.488 647.508 738.308ZM832.5 738.308C832.684 789.331 874.027 830.637 925 830.637C873.913 830.637 832.5 872.128 832.5 923.309C832.315 872.285 790.972 830.979 739.999 830.979C791.086 830.979 832.5 789.488 832.5 738.308ZM92.501 183.304C92.6851 234.327 134.028 275.633 185.001 275.633C133.914 275.633 92.501 317.125 92.501 368.306C92.316 317.282 50.9729 275.976 0 275.976C51.0866 275.976 92.501 234.485 92.501 183.304ZM277.508 0C277.692 51.0238 319.036 92.3291 370.009 92.3291C319.261 92.3291 278.059 133.27 277.514 183.981C278.059 234.693 319.262 275.633 370.009 275.633C318.921 275.633 277.508 317.125 277.508 368.306C277.323 317.282 235.98 275.976 185.007 275.976C235.754 275.976 276.956 235.035 277.501 184.323C276.954 133.612 235.754 92.6719 185.007 92.6719C236.093 92.6719 277.508 51.1808 277.508 0ZM462.5 183.303C462.684 234.327 504.028 275.632 555.001 275.632C503.914 275.632 462.5 317.123 462.5 368.304C462.315 317.28 420.973 275.975 370 275.975C421.086 275.974 462.5 234.483 462.5 183.303ZM832.5 183.303C832.684 234.326 874.027 275.632 925 275.632C873.913 275.632 832.5 317.123 832.5 368.304C832.315 317.28 790.972 275.975 739.999 275.975C791.086 275.975 832.5 234.484 832.5 183.303ZM647.508 0C647.692 51.0237 689.035 92.329 740.008 92.3291C688.92 92.3292 647.508 133.82 647.508 185.001C647.323 133.977 605.98 92.6719 555.007 92.6719C606.093 92.6718 647.508 51.1808 647.508 0Z" fill="var(--fill-0, #D2000F)"/>
</svg>
